

<svg width="162" height="162" viewBox="0 0 162 162" fill="none" xmlns="http://www.w3.org/2000/svg">
<path d="M78.4844 0.59375C75.9375 1.48438 74.0781 3.70312 73.6562 6.3125C73.5625 6.96875 73.5 14.7344 73.5 28.0312V48.7188L64.5625 39.8125C56.4375 31.7344 55.5156 30.8594 54.5937 30.4219C52.4062 29.375 50.2656 29.3438 48.1094 30.2969C45.1094 31.625 43.3438 35.0781 44.0156 38.2812C44.5 40.5625 43.7656 39.75 60.6562 56.6562C73.1719 69.1875 76.3906 72.3281 77.1094 72.7188C78.0781 73.2344 79.6406 73.6562 80.625 73.6562C81.625 73.6562 83.375 73.125 84.375 72.5156C85.0469 72.1094 89.5625 67.6719 100.625 56.5938C109.062 48.1406 116.109 40.9844 116.297 40.6719C117.75 38.2031 117.594 34.8594 115.937 32.5938C113.781 29.6719 109.969 28.7969 106.734 30.4844C105.797 30.9844 104.703 32.0312 96.9375 39.8594L88.1875 48.6719V27.8438C88.1875 5.34375 88.2031 5.84375 87.3594 4.17188C85.7344 0.984375 81.8281 -0.59375 78.4844 0.59375Z" fill="black"/>
<path d="M35.1562 44.375C31.2969 45.3125 28.8437 49.3125 29.8281 53.0781C30.3594 55.125 30.2656 55.0312 39.7969 64.4687L48.7344 73.3437H27.7656C12.9531 73.3437 6.54687 73.3906 5.96875 73.5156C4.10937 73.9062 2.40625 75.1094 1.29688 76.8125C0.0156256 78.7969 -0.156249 81.5469 0.875 83.6875C1.82812 85.6406 3.20312 86.8906 5.1875 87.5469C6.14062 87.875 6.29687 87.875 27.4062 87.875C39.0937 87.875 48.6562 87.9219 48.6562 87.9844C48.6562 88.0469 44.7656 91.9844 40.0312 96.7344C35.2812 101.5 31.1406 105.75 30.8437 106.203C28.875 109.125 29.3437 113.125 31.9219 115.594C33.3125 116.906 34.5937 117.453 36.4375 117.531C38.25 117.609 39.5469 117.297 40.8125 116.469C41.3594 116.109 47.5156 110.062 57.0469 100.516C73.4531 84.0625 72.875 84.7031 73.4062 82.5469C73.7187 81.2656 73.7187 80.5781 73.4062 79.2969C72.875 77.1094 73.4062 77.7031 56.5781 60.9062C42 46.3437 40.8594 45.2343 39.9687 44.8593C38.2656 44.1093 36.8281 43.9687 35.1562 44.375Z" fill="black"/>
<path d="M123.688 44.2968C123.328 44.3593 122.594 44.6093 122.047 44.8437C121.141 45.25 120.094 46.25 105.422 60.9062C88.7188 77.5781 89.125 77.125 88.5781 79.2031C88.2812 80.375 88.2812 81.4062 88.5937 82.6094C89.125 84.6875 88.6406 84.1562 104.953 100.516C114.484 110.062 120.641 116.109 121.188 116.469C122.453 117.297 123.75 117.609 125.562 117.531C126.844 117.484 127.156 117.406 128.188 116.906C132.141 115 133.562 110.047 131.234 106.297C131 105.922 126.875 101.672 122.078 96.8594C117.266 92.0469 113.344 88.0469 113.344 87.9844C113.344 87.9219 123.031 87.8594 134.875 87.8437L156.391 87.7969L157.469 87.2812C158.891 86.6094 159.734 85.9062 160.516 84.7344C161.984 82.5312 162.188 79.8437 161.062 77.4531C160.516 76.3125 159.172 74.9062 158.062 74.3125C156.156 73.2969 157.438 73.3437 134.281 73.3437L113.266 73.3281L122.203 64.4687C130.141 56.5781 131.172 55.5 131.594 54.6406C132.266 53.2344 132.516 51.7187 132.281 50.3125C131.594 46.2187 127.719 43.5 123.688 44.2968Z" fill="black"/>
<path d="M78.5156 88.5937C76.5 89.125 76.8594 88.7969 60.2813 105.422C45.8594 119.875 44.6094 121.156 44.2344 122.016C42.6407 125.687 44.125 129.828 47.6407 131.562C49.8281 132.641 52.0156 132.641 54.2813 131.531C55.3906 130.984 55.8906 130.516 64.2813 122.156C69.1406 117.312 73.1563 113.344 73.1875 113.344C73.2344 113.344 73.2656 122.859 73.2656 134.484V155.609L73.6094 156.719C74.9531 160.953 79.7344 162.984 83.7969 161.031C85.6562 160.141 87.3125 157.953 87.7187 155.859C87.8125 155.312 87.875 147.672 87.875 134.141V113.266L96.75 122.219C105.094 130.641 105.672 131.187 106.656 131.641C108.125 132.312 109.578 132.516 111 132.266C115.844 131.391 118.437 126.203 116.219 121.812C115.75 120.859 114.328 119.406 100.109 105.187C87.7969 92.8906 84.3437 89.5469 83.7187 89.2344C82.0156 88.375 80.1563 88.1562 78.5156 88.5937Z" fill="black"/>
</svg>
