<svg width="30" height="30" viewBox="0 0 488 488" fill="none" xmlns="http://www.w3.org/2000/svg">
<path d="M244 61C143.1 61 61 143.1 61 244C61 344.9 143.1 427 244 427C344.9 427 427 344.9 427 244C427 143.1 344.9 61 244 61ZM244 407C154.1 407 81 333.9 81 244C81 154.1 154.1 81 244 81C333.9 81 407 154.1 407 244C407 333.9 333.9 407 244 407Z" fill="black"/>
<path d="M416.4 71.6C370.2 25.4 309 0 244 0C179 0 117.8 25.4 71.6 71.6C25.4 117.8 0 179 0 244C0 309 25.4 370.2 71.6 416.4C117.8 462.6 179 488 244 488C309 488 370.2 462.6 416.4 416.4C462.6 370.2 488 309 488 244C488 179 462.6 117.8 416.4 71.6ZM244 468C120.5 468 20 367.5 20 244C20 120.5 120.5 20 244 20C367.5 20 468 120.5 468 244C468 367.5 367.5 468 244 468Z" fill="black"/>
<path d="M333.7 173.2L217.1 193.8C214.4 194.3 212 195.9 210.5 198.2L144.2 299.6C142 302.9 142 307.3 144.2 310.6C146.1 313.4 149.2 315.1 152.5 315.1C153.1 315.1 153.7 315 154.2 314.9L270.8 294.3C273.5 293.8 275.9 292.2 277.4 289.9L343.7 188.5C346 185.2 346 180.8 343.8 177.5C341.6 174.2 337.6 172.5 333.7 173.2ZM173.6 291.1L218.6 222.2L252.9 277.1L173.6 291.1ZM269.4 265.8L235.1 210.9L314.4 196.9L269.4 265.8Z" fill="black"/>
</svg>
