<svg width="675" height="725" viewBox="0 0 675 725" fill="none" xmlns="http://www.w3.org/2000/svg">
<rect width="675" height="725" fill="#E5E5E5"/>
<path d="M402.825 534.078L635.351 398.173L550.285 328.688L462.637 299.429L376.737 232.808L269.591 190.076L39.1893 323.857L144.563 366.591L231.804 434.757L317.732 463.803L402.825 534.078Z" fill="white"/>
<path d="M277.091 266.839L269.091 271.728L278.869 283.283L293.091 276.172L277.091 266.839Z" fill="#D3D4D3"/>
<path d="M223.12 419.512L272.14 388.733L288.785 401.112C288.953 401.235 289.14 401.333 289.339 401.4L299.627 404.883L274.527 419.557L276.545 423.009L305.433 406.12C306.111 405.724 306.493 404.971 306.413 404.192C306.335 403.412 305.807 402.751 305.064 402.5L290.92 397.713L275.775 386.451L290.155 377.421L288.027 374.033L219.768 416.893L223.12 419.512Z" fill="#D3D4D3"/>
<path d="M115.085 303.067L70.5933 329.399L75.2533 331.289L119.664 305.004L119.492 304.712L139.724 312.268L141.123 308.52L103.241 294.375L98.7666 296.973L115.085 303.067Z" fill="#D3D4D3"/>
<path d="M318.227 290.736L325.069 296.771L282.589 322.8L275.912 316.617L318.227 290.736ZM230.831 311.111C231.092 311.225 231.369 311.283 231.647 311.283C232.017 311.283 232.387 311.18 232.709 310.977L249.32 300.555L255.543 303.209L291.287 336.307L294.005 333.372L285.639 325.624L329.469 298.767C330.009 298.435 330.361 297.865 330.416 297.233C330.471 296.601 330.221 295.98 329.747 295.561L305.303 274.005L305.053 273.819L278.829 257.152L276.684 260.527L302.775 277.109L315.088 287.968L272.863 313.795L258.005 300.039C257.836 299.883 257.643 299.756 257.432 299.665L201.432 275.777L199.861 279.456L244.841 298.644L231.487 307.023L162.352 276.192L189.341 259.999L187.284 256.568L157.893 274.203L146.632 269.181L142.364 271.659L230.831 311.111Z" fill="#D3D4D3"/>
<path d="M475.364 452.951L472.596 455.836L491.859 474.319L495.448 472.22L475.364 452.951Z" fill="#D3D4D3"/>
<path d="M327.073 443.624L324.887 440.276L305.817 452.739L310.637 454.368L327.073 443.624Z" fill="#D3D4D3"/>
<path d="M500.897 378.285C501.027 379.044 501.58 379.663 502.32 379.873L533.431 388.763L534.529 384.916L504.629 376.373L502.917 366.317L551.611 338.379L548.296 335.671L502.203 362.117L501.284 356.724C501.179 356.103 500.784 355.565 500.221 355.279L490.771 350.456L528.831 328.553L523.756 326.86L486.521 348.287L457.555 333.503L455.737 337.064L497.509 358.387L500.897 378.285Z" fill="#D3D4D3"/>
<path d="M393.944 254.589L378.76 263.328L380.755 266.793L397.359 257.239L393.944 254.589Z" fill="#D3D4D3"/>
<path d="M328.203 327.283L382.424 325.061L431.757 314.839L455.757 327.283L413.98 353.061L398.868 349.061L330.424 373.505L309.536 334.839L328.203 327.283Z" fill="#CDE9B1"/>
<path d="M268.647 195.283L182.647 246.616L214.647 262.616L250.647 247.949L275.98 249.949L318.647 226.616L314.647 213.949L268.647 195.283Z" fill="#CDE9B1"/>
<path d="M349.313 385.283L307.313 399.949L307.98 408.616L313.98 425.283L347.313 439.949L353.313 443.949L356.647 446.616L417.98 459.949L432.647 469.949L463.313 451.283L448.647 426.616L463.313 397.949L449.313 386.616L400.647 364.616L349.313 385.283Z" fill="#CDE9B1"/>
<path d="M377.813 428.896C376.1 418.444 366.741 411.887 356.647 401.061C352.629 396.753 348.356 392.171 344.465 386.976C343.383 385.531 342.331 384.04 341.321 382.493L369.348 372.625C370.039 373.857 370.795 375.079 371.635 376.296C372.933 378.179 374.433 380.052 376.203 381.949C384.451 390.796 397.92 399.756 404.487 413.399L377.813 428.896ZM338.615 372.139L363.279 357.679C363.295 357.727 363.309 357.775 363.325 357.823C363.716 359.023 364.103 360.192 364.496 361.337C364.669 361.843 364.845 362.344 365.023 362.84L338.615 372.139ZM318.56 266.331C314.745 263.683 310.748 261.243 306.869 259.283C302.413 257.033 297.729 254.877 292.944 252.728L315.72 239.963C324.757 244.508 333.809 248.621 341.856 252.907L318.56 266.331ZM283.833 248.663C265.565 240.489 247.075 231.665 235.413 217.629L268.34 198.511C277.687 212.285 291.497 225.756 307.468 235.416L283.833 248.663Z" fill="url(#paint0_linear)"/>
<path d="M439.628 481.319L538.751 420.019C539.961 419.271 540.683 417.933 540.645 416.509L539.371 368.699L566.339 350.409L559.873 345.128L533.068 363.307C531.94 364.071 531.277 365.36 531.315 366.724L532.587 414.424L433.209 475.881L433.287 476.005L419.216 464.217C418.696 463.781 418.073 463.485 417.408 463.356L353.276 450.923L346.808 444.455C346.401 444.048 345.911 443.733 345.371 443.533L263.387 413.119L196.763 355.212L275.372 308.047C277.032 307.051 277.74 305.008 277.052 303.197L264.051 268.92L320.944 237.036L350.631 248.787L434.839 315.093C435.031 315.244 435.237 315.377 435.453 315.492L458.388 327.532L411.183 357.231L415.444 364.003L491.561 316.113L481.747 312.836L465.497 323.06L465.839 322.408L439.499 308.579L355.12 242.14C354.817 241.9 354.479 241.707 354.119 241.564L322.119 228.897C321 228.453 319.743 228.539 318.691 229.127L258.805 262.689L213.48 265.881L181.028 249.209L172.811 253.98L204.467 270.244L92.5627 338.309L101.799 342.055L213.896 273.872L256.243 270.889L268.388 302.908L187.921 351.187C186.824 351.845 186.107 352.991 185.996 354.267C185.884 355.543 186.388 356.795 187.356 357.636L258.689 419.636C259.052 419.951 259.471 420.2 259.923 420.367L284.42 429.455L268.313 440.061L277.928 443.311L293.727 432.907L341.769 450.729L348.485 457.444C349.049 458.008 349.769 458.391 350.552 458.544L414.871 471.013L448.831 499.466L456.169 495.177L439.628 481.319Z" fill="#FCE194"/>
<path d="M305.979 394.619C304.772 394.619 303.58 394.207 302.615 393.421L302.488 393.319L306.927 390.716L309.048 389.969C309.577 389.784 309.953 389.357 310.097 388.857L312.057 387.708C312.372 388.111 312.859 388.348 313.369 388.348C313.553 388.348 313.74 388.319 313.923 388.253L318.799 386.537C319.667 386.232 320.123 385.28 319.816 384.412C319.687 384.044 319.443 383.751 319.139 383.557L338.615 372.139L365.023 362.84L398.876 350.92C399.449 350.717 400.049 350.616 400.647 350.616C401.381 350.616 402.113 350.768 402.796 351.069L413.489 355.78L422.325 359.672L458.796 375.736C459.313 375.963 459.791 376.272 460.211 376.649L463.167 379.305L453.367 384.999L400.428 361.681L369.348 372.625L341.321 382.493L307.751 394.313C307.173 394.519 306.575 394.619 305.979 394.619ZM327.997 379.863C327.813 379.863 327.625 379.895 327.44 379.96L322.565 381.676C321.697 381.981 321.241 382.933 321.547 383.801C321.788 384.487 322.431 384.915 323.119 384.915C323.303 384.915 323.488 384.884 323.672 384.82L328.547 383.103C329.416 382.799 329.871 381.847 329.565 380.979C329.324 380.295 328.684 379.863 327.997 379.863ZM337.747 376.431C337.563 376.431 337.375 376.463 337.191 376.528L332.315 378.244C331.447 378.548 330.991 379.5 331.297 380.369C331.537 381.053 332.181 381.483 332.868 381.483C333.052 381.483 333.239 381.452 333.421 381.387L338.297 379.671C339.165 379.367 339.621 378.415 339.315 377.545C339.075 376.861 338.433 376.431 337.747 376.431ZM347.495 372.997C347.311 372.997 347.123 373.029 346.939 373.095L342.064 374.811C341.196 375.115 340.74 376.067 341.045 376.935C341.287 377.62 341.929 378.048 342.617 378.048C342.801 378.048 342.987 378.019 343.171 377.953L348.045 376.237C348.915 375.933 349.369 374.981 349.064 374.112C348.824 373.428 348.183 372.997 347.495 372.997ZM357.244 369.565C357.06 369.565 356.872 369.597 356.689 369.661L351.813 371.379C350.945 371.683 350.489 372.635 350.796 373.503C351.036 374.188 351.68 374.616 352.367 374.616C352.551 374.616 352.737 374.587 352.92 374.521L357.796 372.805C358.664 372.5 359.12 371.548 358.813 370.68C358.573 369.996 357.931 369.565 357.244 369.565ZM366.995 366.132C366.809 366.132 366.621 366.163 366.437 366.228L361.563 367.944C360.695 368.249 360.239 369.201 360.544 370.069C360.785 370.755 361.428 371.183 362.116 371.183C362.3 371.183 362.485 371.153 362.669 371.088L367.544 369.372C368.413 369.067 368.868 368.115 368.563 367.247C368.323 366.561 367.681 366.132 366.995 366.132ZM376.744 362.7C376.56 362.7 376.372 362.731 376.188 362.796L371.312 364.512C370.444 364.817 369.988 365.768 370.295 366.637C370.535 367.321 371.179 367.751 371.865 367.751C372.049 367.751 372.236 367.72 372.419 367.655L377.295 365.939C378.163 365.635 378.619 364.683 378.312 363.815C378.071 363.129 377.431 362.7 376.744 362.7ZM386.493 359.265C386.309 359.265 386.121 359.297 385.936 359.363L381.061 361.079C380.193 361.383 379.737 362.335 380.043 363.204C380.284 363.888 380.927 364.317 381.615 364.317C381.799 364.317 381.984 364.287 382.168 364.221L387.043 362.505C387.912 362.201 388.368 361.249 388.061 360.38C387.82 359.696 387.18 359.265 386.493 359.265ZM396.243 355.833C396.059 355.833 395.871 355.864 395.687 355.931L390.812 357.647C389.943 357.951 389.487 358.903 389.793 359.771C390.033 360.456 390.677 360.884 391.365 360.884C391.548 360.884 391.735 360.855 391.919 360.789L396.793 359.073C397.661 358.768 398.117 357.817 397.812 356.948C397.571 356.264 396.929 355.833 396.243 355.833ZM401.111 354.453C400.432 354.453 399.797 354.872 399.548 355.545C399.231 356.409 399.672 357.368 400.535 357.685L405.384 359.472C405.575 359.543 405.769 359.575 405.961 359.575C406.64 359.575 407.276 359.157 407.525 358.484C407.843 357.62 407.401 356.661 406.537 356.344L401.689 354.557C401.497 354.487 401.303 354.453 401.111 354.453ZM216.377 325.211L164.956 303.64L155.845 299.817L119.864 284.724L131.428 278.009L167.099 292.972L176.211 296.795L226.043 317.699C226.511 317.895 226.949 318.159 227.344 318.479L227.641 318.72L216.377 325.211Z" fill="url(#paint1_linear)"/>
<path d="M539.98 445.283L525.98 431.283L544.647 419.284L566.647 361.949L574.647 358.616L621.98 397.283L539.98 445.283Z" fill="#CDE9B1"/>
<path d="M184.647 386.616L150.647 361.283L147.313 335.949L132.647 326.616L164.647 306.616L213.98 325.951L210.647 335.283L184.647 350.616L173.313 357.949L190.647 362.616L195.98 381.949L184.647 386.616Z" fill="#CDE9B1"/>
<path d="M477.091 445.061L501.091 430.839L472.203 404.172L463.757 409.949L479.757 427.728L469.091 434.395L477.091 445.061Z" fill="#D3D4D3"/>
<path d="M418.424 512.616L442.424 498.395L420.424 479.061L411.979 484.839L410.424 501.949L418.424 512.616Z" fill="#D3D4D3"/>
<path d="M454.424 344.616L435.313 356.616L447.965 363.709L460.017 360.149L473.535 367.728L488.201 359.283L454.424 344.616Z" fill="#D3D4D3"/>
<path d="M229.98 276.616L224.647 280.172L249.98 291.283L255.313 285.949L250.424 276.616H229.98Z" fill="#D3D4D3"/>
<path d="M248.647 393.061L267.757 381.061L260.201 373.505L252.203 377.949L244.647 370.839L230.424 379.283L248.647 393.061Z" fill="#D3D4D3"/>
<path d="M379.313 304.616L397.536 292.172L379.313 276.172L373.091 281.949L382.869 289.505L374.424 296.616L379.313 304.616Z" fill="#D3D4D3"/>
<path d="M513.98 418.839L527.313 410.395L526.868 389.061L516.647 387.283L513.98 401.061L509.091 404.616L487.313 385.505L480.201 389.505L513.98 418.839Z" fill="#D3D4D3"/>
<path d="M307.313 379.283L321.98 371.728L305.091 338.395L291.757 345.505L291.313 355.283L284.201 360.616L307.313 379.283Z" fill="#D3D4D3"/>
<path d="M231.804 434.757L144.563 366.591L150.795 363L185.515 390.129L193.247 396.171L220.543 417.499L223.12 419.512L235.013 428.805L239.417 430.293L231.804 434.757Z" fill="#C8C9CA"/>
<path d="M239.417 430.293L235.013 428.805L223.12 419.512L243.688 406.597L258.249 419.253L239.417 430.293ZM220.543 417.499L193.247 396.171L194.503 397.151L217.056 383.451L240.533 403.855L219.768 416.893L220.543 417.499ZM266.648 414.329L263.387 413.119L250.769 402.152L272.14 388.733L288.785 401.112C288.848 401.157 288.912 401.199 288.979 401.237L266.648 414.329ZM247.613 399.409L224.235 379.089L248.011 364.647C251.381 365.993 255.299 366.723 259.355 366.723C262.467 366.723 265.487 366.284 268.241 365.476L282.803 377.313L247.613 399.409ZM244.647 370.839L230.424 379.283L248.647 393.061L267.757 381.061L260.201 373.505L252.203 377.949L244.647 370.839ZM293.501 398.587L290.92 397.713L275.775 386.451L286.081 379.979L302.488 393.319L293.501 398.587ZM185.515 390.129L150.795 363L152.011 362.3L184.647 386.616L195.98 381.949L190.647 362.616L173.313 357.949L184.647 350.616L210.647 335.283L213.691 326.757L216.377 325.211L221.211 327.237L224.024 329.525L187.921 351.187C186.824 351.845 186.107 352.991 185.996 354.267C185.884 355.543 186.388 356.795 187.356 357.636L208.603 376.103L185.515 390.129ZM215.781 371.743L196.763 355.212L230.627 334.893L241.207 343.495C238.847 345.9 237.525 348.799 237.527 351.867C237.527 353.863 238.103 355.784 239.136 357.556L215.781 371.743Z" fill="url(#paint2_linear)"/>
<path d="M223.12 419.512L220.543 417.499L219.768 416.893L240.533 403.855L243.688 406.597L223.12 419.512ZM250.769 402.152L247.613 399.409L282.803 377.313L286.081 379.979L275.775 386.451L290.92 397.713L293.501 398.587L288.979 401.237C288.912 401.199 288.848 401.157 288.785 401.112L272.14 388.733L250.769 402.152Z" fill="#A0A3A6"/>
<path d="M258.249 419.253L243.688 406.597L240.533 403.855L217.056 383.451L224.235 379.089L247.613 399.409L250.769 402.152L263.387 413.119L266.648 414.329L258.249 419.253ZM208.603 376.103L187.356 357.636C186.388 356.795 185.884 355.543 185.996 354.267C186.107 352.991 186.824 351.845 187.921 351.187L224.024 329.525L230.627 334.893L196.763 355.212L215.781 371.743L208.603 376.103Z" fill="#C3B075"/>
<path d="M441.415 291.407L437.428 288.313L428.368 281.288L397.359 257.239L394.679 255.16L373.393 238.652L369.376 237.049L376.737 232.808L437.357 279.824C438.629 283.667 439.993 287.545 441.415 291.407Z" fill="#C8C9CA"/>
<path d="M307.027 383.261L277.983 359.649C279.923 357.392 280.977 354.753 280.977 351.985C280.977 350.685 280.719 349.419 280.272 348.2L319.543 326.513L336.403 325.231C336.252 325.804 336.099 326.384 335.945 326.965L328.203 327.283L309.536 334.839L330.424 373.505L335.544 371.677C335.733 372.128 335.927 372.573 336.123 373.016L307.027 383.261ZM305.091 338.395L291.757 345.505L291.313 355.283L284.201 360.616L307.313 379.283L321.98 371.728L305.091 338.395ZM272.669 340.212C268.869 338.225 264.117 337.127 259.148 337.127C256.468 337.127 253.853 337.447 251.419 338.051L240.355 329.056L266.509 313.364L286.973 332.313L272.669 340.212ZM290.663 330.276L285.639 325.624L329.469 298.767C330.009 298.435 330.361 297.865 330.416 297.233C330.471 296.601 330.221 295.98 329.747 295.561L305.303 274.005L305.275 273.985L318.56 266.331C329.241 273.745 338.5 282.789 339.791 287.485C342.164 296.113 340.84 304.693 338.897 314.344L317.575 315.965C316.812 316.023 316.071 316.244 315.401 316.613L290.663 330.276ZM363.764 325.825C363.936 324.981 364.112 324.131 364.289 323.272C364.301 323.217 364.312 323.161 364.324 323.105L379.719 321.935C380.537 321.872 381.331 321.621 382.036 321.203L416.563 300.703L434.839 315.093C434.997 315.219 435.167 315.331 435.343 315.431L434.196 316.103L431.757 314.839L382.424 325.061L363.764 325.825ZM233.753 323.688L227.641 318.72L254.977 302.968L255.543 303.209L260.396 307.703L233.753 323.688ZM282.589 322.8L275.912 316.617L318.227 290.736L325.069 296.771L282.589 322.8ZM272.863 313.795L270.083 311.22L275.372 308.047C277.032 307.051 277.74 305.008 277.052 303.197L273.021 292.571L301.385 276.227L302.775 277.109L315.088 287.968L272.863 313.795ZM367.016 312.204C369.669 301.895 372.256 290.348 369.091 278.839C366.053 267.791 355.369 260.104 341.856 252.907L349.668 248.405L350.631 248.787L407.581 293.631L377.663 311.393L367.016 312.204ZM379.313 276.172L373.091 281.949L382.869 289.505L374.424 296.616L379.313 304.616L397.536 292.172L379.313 276.172ZM443.472 310.665L439.499 308.579L423.935 296.325L437.428 288.313L441.415 291.407C443.497 297.061 445.701 302.675 447.909 308.064L443.472 310.665ZM263.968 305.56L258.795 300.768L266 296.616L268.388 302.908L263.968 305.56ZM414.953 289.252L384.033 264.907L397.359 257.239L428.368 281.288L414.953 289.252ZM380.648 262.24L357.411 243.944L369.376 237.049L373.393 238.652L394.679 255.16L393.944 254.589L380.648 262.24Z" fill="url(#paint3_linear)"/>
<path d="M286.973 332.313L266.509 313.364L270.083 311.22L272.863 313.795L315.088 287.968L302.775 277.109L301.385 276.227L305.275 273.985L305.303 274.005L329.747 295.561C330.221 295.98 330.471 296.601 330.416 297.233C330.361 297.865 330.009 298.435 329.469 298.767L285.639 325.624L290.663 330.276L286.973 332.313ZM318.227 290.736L275.912 316.617L282.589 322.8L325.069 296.771L318.227 290.736ZM260.396 307.703L255.543 303.209L254.977 302.968L258.795 300.768L263.968 305.56L260.396 307.703Z" fill="#A0A3A6"/>
<path d="M384.033 264.907L380.648 262.24L393.944 254.589L394.679 255.16L397.359 257.239L384.033 264.907Z" fill="#A0A3A6"/>
<path d="M330.424 373.505L309.536 334.839L328.203 327.283L335.945 326.965C332.777 338.951 329.1 352.536 333.824 367.044C334.343 368.639 334.919 370.181 335.544 371.677L330.424 373.505ZM363.279 357.679C359.829 346.953 361.48 337.031 363.764 325.825L382.424 325.061L431.757 314.839L434.196 316.103L363.279 357.679Z" fill="#9EB88D"/>
<path d="M336.123 373.016C335.927 372.573 335.733 372.128 335.544 371.677C334.919 370.181 334.343 368.639 333.824 367.044C329.1 352.536 332.777 338.951 335.945 326.965C336.099 326.384 336.252 325.804 336.403 325.231L364.324 323.105C364.312 323.161 364.301 323.217 364.289 323.272C364.112 324.131 363.936 324.981 363.764 325.825C361.48 337.031 359.829 346.953 363.279 357.679L338.615 372.139L336.123 373.016ZM338.897 314.344C340.84 304.693 342.164 296.113 339.791 287.485C338.5 282.789 329.241 273.745 318.56 266.331L341.856 252.907C355.369 260.104 366.053 267.791 369.091 278.839C372.256 290.348 369.669 301.895 367.016 312.204L338.897 314.344Z" fill="url(#paint4_linear)"/>
<path d="M240.355 329.056L233.753 323.688L260.396 307.703L263.968 305.56L268.388 302.908L266 296.616L268.889 294.952L269.671 297.756C269.876 298.492 270.545 298.975 271.275 298.975C271.423 298.975 271.575 298.955 271.724 298.913C272.611 298.665 273.129 297.747 272.881 296.86L271.871 293.233L273.021 292.571L277.052 303.197C277.74 305.008 277.032 307.051 275.372 308.047L270.083 311.22L266.509 313.364L240.355 329.056ZM242.447 320.873C242.163 320.873 241.873 320.945 241.609 321.097L237.529 323.467C236.733 323.929 236.463 324.948 236.924 325.745C237.233 326.277 237.793 326.575 238.367 326.575C238.651 326.575 238.939 326.501 239.203 326.349L243.284 323.981C244.08 323.519 244.351 322.499 243.888 321.703C243.58 321.169 243.021 320.873 242.447 320.873ZM250.607 316.133C250.321 316.133 250.033 316.207 249.769 316.36L245.689 318.728C244.893 319.191 244.623 320.209 245.085 321.007C245.393 321.54 245.953 321.836 246.527 321.836C246.811 321.836 247.099 321.764 247.364 321.611L251.444 319.243C252.24 318.78 252.511 317.761 252.048 316.964C251.739 316.431 251.181 316.133 250.607 316.133ZM258.767 311.396C258.483 311.396 258.193 311.469 257.929 311.621L253.849 313.989C253.053 314.452 252.783 315.472 253.245 316.268C253.553 316.801 254.113 317.097 254.688 317.097C254.972 317.097 255.259 317.025 255.524 316.873L259.604 314.504C260.4 314.041 260.671 313.023 260.208 312.225C259.899 311.693 259.341 311.396 258.767 311.396ZM266.927 306.657C266.643 306.657 266.353 306.731 266.089 306.883L262.009 309.252C261.213 309.713 260.943 310.733 261.405 311.531C261.713 312.063 262.273 312.36 262.848 312.36C263.132 312.36 263.42 312.287 263.684 312.135L267.764 309.765C268.56 309.304 268.831 308.284 268.368 307.488C268.06 306.955 267.501 306.657 266.927 306.657ZM272.597 300.38C272.449 300.38 272.3 300.4 272.151 300.441C271.264 300.688 270.745 301.607 270.992 302.493L271.363 303.823L270.169 304.515C269.373 304.977 269.103 305.997 269.565 306.793C269.875 307.325 270.433 307.623 271.008 307.623C271.292 307.623 271.581 307.549 271.844 307.397L274.149 306.057C274.805 305.676 275.121 304.9 274.919 304.169L274.203 301.6C273.999 300.863 273.325 300.38 272.597 300.38ZM435.343 315.431C435.167 315.331 434.997 315.219 434.839 315.093L416.563 300.703L423.935 296.325L439.499 308.579L443.472 310.665L435.343 315.431ZM407.581 293.631L350.631 248.787L349.668 248.405L357.411 243.944L380.648 262.24L384.033 264.907L414.953 289.252L407.581 293.631Z" fill="#C3B075"/>
<path d="M259.355 356.056C255.929 356.056 252.652 355.297 250.364 353.977C248.739 353.04 248.193 352.135 248.193 351.865C248.193 351.608 248.72 350.736 250.291 349.831C252.533 348.536 255.761 347.793 259.148 347.793C262.575 347.793 265.852 348.552 268.14 349.872C269.765 350.811 270.311 351.716 270.311 351.985C270.311 352.243 269.783 353.112 268.213 354.019C265.971 355.313 262.741 356.056 259.355 356.056Z" fill="url(#paint5_linear)"/>
<path d="M194.503 397.151L193.247 396.171L185.515 390.129L208.603 376.103L215.781 371.743L239.136 357.556C238.103 355.784 237.527 353.863 237.527 351.867C237.525 348.799 238.847 345.9 241.207 343.495L230.627 334.893L224.024 329.525L221.211 327.237L216.377 325.211L227.641 318.72L233.753 323.688L240.355 329.056L251.419 338.051C253.853 337.447 256.468 337.127 259.148 337.127C264.117 337.127 268.869 338.225 272.669 340.212L286.973 332.313L290.663 330.276L315.401 316.613C316.071 316.244 316.812 316.023 317.575 315.965L338.897 314.344L367.016 312.204L377.663 311.393L407.581 293.631L414.953 289.252L428.368 281.288L437.428 288.313L423.935 296.325L416.563 300.703L382.036 321.203C381.331 321.621 380.537 321.872 379.719 321.935L364.324 323.105L336.403 325.231L319.543 326.513L280.272 348.2C280.719 349.419 280.977 350.685 280.977 351.985C280.977 354.753 279.923 357.392 277.983 359.649L307.027 383.261L336.123 373.016L338.615 372.139L319.139 383.557C318.875 383.389 318.567 383.297 318.249 383.297C318.064 383.297 317.876 383.328 317.692 383.393L312.816 385.109C311.948 385.415 311.492 386.367 311.799 387.235C311.86 387.411 311.948 387.569 312.057 387.708L310.097 388.857C310.189 388.536 310.187 388.184 310.067 387.844C309.825 387.16 309.184 386.729 308.499 386.729C308.313 386.729 308.125 386.76 307.941 386.825L306.307 387.401L304.963 386.308C304.652 386.056 304.28 385.933 303.911 385.933C303.427 385.933 302.947 386.144 302.617 386.548C302.036 387.264 302.144 388.313 302.859 388.893L304.927 390.576C305.229 390.821 305.601 390.949 305.979 390.949C306.165 390.949 306.352 390.919 306.532 390.855L306.927 390.716L302.488 393.319L286.081 379.979L282.803 377.313L268.241 365.476C265.487 366.284 262.467 366.723 259.355 366.723C255.299 366.723 251.381 365.993 248.011 364.647L224.235 379.089L217.056 383.451L194.503 397.151ZM296.556 379.955C296.072 379.955 295.592 380.164 295.263 380.571C294.683 381.284 294.791 382.333 295.505 382.915L299.183 385.904C299.491 386.155 299.863 386.277 300.232 386.277C300.716 386.277 301.197 386.068 301.527 385.661C302.107 384.948 301.999 383.899 301.284 383.319L297.607 380.328C297.297 380.077 296.925 379.955 296.556 379.955ZM289.201 373.975C288.717 373.975 288.237 374.184 287.908 374.591C287.327 375.304 287.435 376.353 288.149 376.933L291.827 379.924C292.136 380.175 292.507 380.297 292.876 380.297C293.361 380.297 293.841 380.088 294.171 379.681C294.752 378.968 294.643 377.919 293.928 377.337L290.252 374.348C289.943 374.096 289.571 373.975 289.201 373.975ZM281.847 367.995C281.363 367.995 280.881 368.205 280.552 368.611C279.972 369.324 280.08 370.375 280.795 370.955L284.472 373.944C284.78 374.196 285.151 374.319 285.521 374.319C286.005 374.319 286.485 374.108 286.815 373.703C287.396 372.988 287.288 371.939 286.573 371.359L282.896 368.369C282.588 368.117 282.216 367.995 281.847 367.995ZM274.491 362.015C274.007 362.015 273.525 362.224 273.197 362.631C272.616 363.344 272.724 364.393 273.439 364.975L277.116 367.964C277.425 368.215 277.796 368.337 278.165 368.337C278.649 368.337 279.131 368.128 279.46 367.721C280.04 367.008 279.932 365.959 279.217 365.377L275.54 362.388C275.232 362.137 274.86 362.015 274.491 362.015ZM270.665 355.501C270.205 355.501 269.748 355.691 269.419 356.063C268.531 357.065 267.736 357.681 267.731 357.685C267.325 357.995 267.084 358.473 267.076 358.985C267.068 359.495 267.295 359.981 267.692 360.303L269.761 361.985C270.071 362.236 270.443 362.359 270.811 362.359C271.296 362.359 271.776 362.149 272.105 361.743C272.687 361.029 272.579 359.979 271.864 359.399L271.296 358.937C271.493 358.735 271.701 358.513 271.913 358.273C272.524 357.585 272.46 356.532 271.771 355.921C271.453 355.64 271.059 355.501 270.665 355.501ZM259.148 347.793C255.761 347.793 252.533 348.536 250.291 349.831C248.72 350.736 248.193 351.608 248.193 351.865C248.193 352.135 248.739 353.04 250.364 353.977C252.652 355.297 255.929 356.056 259.355 356.056C262.741 356.056 265.971 355.313 268.213 354.019C269.783 353.112 270.311 352.243 270.311 351.985C270.311 351.716 269.765 350.811 268.14 349.872C265.852 348.552 262.575 347.793 259.148 347.793ZM273.029 346.636C272.815 346.636 272.597 346.677 272.387 346.765C271.537 347.12 271.137 348.096 271.492 348.945C271.747 349.552 271.869 350.157 271.869 350.796C271.869 351.349 271.771 351.932 271.577 352.528C271.292 353.403 271.769 354.344 272.644 354.629C272.816 354.685 272.991 354.712 273.161 354.712C273.863 354.712 274.517 354.265 274.747 353.561C275.049 352.631 275.203 351.701 275.203 350.796C275.203 349.721 274.989 348.665 274.568 347.659C274.3 347.02 273.681 346.636 273.029 346.636ZM265.701 340.727C264.991 340.727 264.336 341.181 264.112 341.892C263.836 342.769 264.323 343.707 265.2 343.984C266.672 344.447 267.945 345.091 268.988 345.893C269.292 346.128 269.649 346.241 270.005 346.241C270.504 346.241 270.997 346.019 271.325 345.593C271.888 344.864 271.753 343.819 271.025 343.256C269.671 342.211 268.048 341.385 266.203 340.804C266.036 340.751 265.867 340.727 265.701 340.727ZM246.605 339.235C246.131 339.235 245.659 339.437 245.328 339.829C244.736 340.535 244.827 341.585 245.532 342.177L247.575 343.892C247.877 344.148 248.259 344.283 248.645 344.283C248.792 344.283 248.937 344.264 249.081 344.225C249.089 344.223 250.04 343.968 251.541 343.701C252.448 343.54 253.052 342.675 252.891 341.768C252.749 340.967 252.052 340.391 251.265 340.391C251.164 340.391 251.061 340.4 250.959 340.42C250.183 340.557 249.54 340.692 249.073 340.799L247.676 339.625C247.364 339.363 246.983 339.235 246.605 339.235ZM258.38 343.065C259.204 343.065 260.028 343.096 260.805 343.161L260.944 343.167C261.803 343.167 262.532 342.509 262.604 341.639C262.68 340.721 261.999 339.916 261.081 339.839C260.213 339.767 259.296 339.733 258.381 339.733C257.569 339.733 256.76 339.76 255.989 339.809C255.072 339.867 254.373 340.659 254.432 341.577C254.488 342.448 255.175 343.141 256.052 343.141C256.101 343.141 256.151 343.139 256.2 343.135C256.903 343.091 257.641 343.065 258.38 343.065ZM238.217 332.187C237.741 332.187 237.269 332.389 236.94 332.783C236.348 333.487 236.439 334.539 237.144 335.131L241.339 338.653C241.651 338.917 242.031 339.044 242.409 339.044C242.884 339.044 243.357 338.843 243.687 338.449C244.279 337.745 244.188 336.695 243.481 336.103L239.288 332.579C238.976 332.316 238.596 332.187 238.217 332.187ZM234.285 325.611C234.001 325.611 233.713 325.684 233.451 325.836L231.144 327.175C230.673 327.447 230.365 327.932 230.319 328.472C230.272 329.013 230.491 329.543 230.907 329.892L232.948 331.608C233.26 331.872 233.643 331.999 234.02 331.999C234.495 331.999 234.968 331.797 235.297 331.405C235.889 330.7 235.799 329.649 235.093 329.056L234.869 328.868L235.123 328.719C235.919 328.257 236.191 327.237 235.728 326.441C235.42 325.908 234.86 325.611 234.285 325.611Z" fill="url(#paint6_linear)"/>
<path d="M184.647 386.616L152.011 362.3L213.691 326.757L210.647 335.283L184.647 350.616L173.313 357.949L190.647 362.616L195.98 381.949L184.647 386.616Z" fill="#9EB88D"/>
<path d="M248.647 393.061L230.424 379.283L244.647 370.839L252.203 377.949L260.201 373.505L267.757 381.061L248.647 393.061Z" fill="#A0A3A6"/>
<path d="M379.313 304.616L374.424 296.616L382.869 289.505L373.091 281.949L379.313 276.172L397.536 292.172L379.313 304.616Z" fill="#A0A3A6"/>
<path d="M307.313 379.283L284.201 360.616L291.313 355.283L291.757 345.505L305.091 338.395L321.98 371.728L307.313 379.283Z" fill="#A0A3A6"/>
<path d="M402.825 534.078L401.383 532.888L400.708 532.331L317.732 463.803L323.879 460.232L368.095 496.751L395.964 519.766L403.48 525.973L491.859 474.319L493.641 473.276L623.696 397.263L547.015 334.624L542.604 333.152L550.285 328.688L635.351 398.173L631.857 400.215L432.367 516.812L402.825 534.078Z" fill="#C8C9CA"/>
<path d="M403.48 525.973L395.964 519.766C398.195 508.071 401.504 488.656 404.219 468.948L414.871 471.013L448.831 499.466L456.169 495.177L439.628 481.319L475.824 458.935L491.859 474.319L403.48 525.973ZM420.424 479.061L411.979 484.839L410.424 501.949L418.424 512.616L442.424 498.394L420.424 479.061ZM368.095 496.751L323.879 460.232L340.832 450.383L341.769 450.729L348.485 457.444C349.049 458.008 349.769 458.391 350.552 458.544L371.473 462.6C367.937 472.728 363.568 482.335 359.796 489.896L368.095 496.751ZM433.287 476.005L419.216 464.217C418.696 463.781 418.073 463.485 417.408 463.356L405.277 461.004C405.436 459.763 405.593 458.524 405.745 457.291L417.98 459.949L432.647 469.949L463.313 451.283L448.647 426.616L463.313 397.949L449.844 387.045L453.367 384.999L453.717 385.153L505.168 431.38L433.209 475.881L433.287 476.005ZM472.203 404.172L463.757 409.949L479.757 427.728L469.091 434.395L477.091 445.061L501.091 430.839L472.203 404.172ZM493.641 473.276L495.448 472.22L479.336 456.763L511.371 436.952L528.877 452.681L538.547 447.029L520.823 431.105L538.751 420.019C539.961 419.271 540.683 417.933 540.645 416.509L539.371 368.699L566.339 350.409L559.873 345.128L533.068 363.307C531.94 364.071 531.277 365.36 531.315 366.724L531.779 384.131L504.629 376.373L502.917 366.317L551.611 338.379L548.296 335.671L502.203 362.117L501.56 358.341C504.933 356.671 507.643 354.655 509.468 352.404L542.604 333.152L547.015 334.624L623.696 397.263L493.641 473.276ZM574.647 358.616L566.647 361.949L544.647 419.284L525.98 431.283L539.98 445.283L621.98 397.283L574.647 358.616ZM373.947 454.929L353.276 450.923L348.361 446.008L352.656 443.512L353.313 443.949L356.647 446.616L375.136 450.636C374.765 452.067 374.367 453.5 373.947 454.929ZM514.621 425.533L463.167 379.305L494.697 360.985C495.761 360.673 496.789 360.332 497.779 359.965L500.897 378.285C501.027 379.044 501.58 379.663 502.32 379.873L531.891 388.323L532.587 414.424L514.621 425.533ZM487.313 385.505L480.201 389.505L513.98 418.839L527.313 410.395L526.868 389.061L516.647 387.283L513.98 401.061L509.091 404.616L487.313 385.505Z" fill="url(#paint7_linear)"/>
<path d="M491.859 474.319L475.824 458.935L479.336 456.763L495.448 472.22L493.641 473.276L491.859 474.319Z" fill="#A0A3A6"/>
<path d="M531.891 388.323L502.32 379.873C501.58 379.663 501.027 379.044 500.897 378.285L497.779 359.965C499.115 359.469 500.377 358.927 501.56 358.341L502.203 362.117L548.296 335.671L551.611 338.379L502.917 366.317L504.629 376.373L531.779 384.131L531.891 388.323Z" fill="#A0A3A6"/>
<path d="M432.647 469.949L417.98 459.949L405.745 457.291C406.776 448.956 407.639 440.835 408.203 433.505C408.8 425.743 407.257 419.153 404.487 413.399L449.844 387.045L463.313 397.949L448.647 426.616L463.313 451.283L432.647 469.949ZM375.136 450.636L356.647 446.616L353.313 443.949L352.656 443.512L377.813 428.896C378.088 430.573 378.165 432.351 378.019 434.261C377.613 439.539 376.577 445.077 375.136 450.636Z" fill="#9EB88D"/>
<path d="M395.964 519.766L368.095 496.751L359.796 489.896C363.568 482.335 367.937 472.728 371.473 462.6L404.219 468.948C401.504 488.656 398.195 508.071 395.964 519.766ZM405.277 461.004L373.947 454.929C374.367 453.5 374.765 452.067 375.136 450.636C376.577 445.077 377.613 439.539 378.019 434.261C378.165 432.351 378.088 430.573 377.813 428.896L404.487 413.399C407.257 419.153 408.8 425.743 408.203 433.505C407.639 440.835 406.776 448.956 405.745 457.291C405.593 458.524 405.436 459.763 405.277 461.004Z" fill="url(#paint8_linear)"/>
<path d="M448.831 499.466L414.871 471.013L404.219 468.948L371.473 462.6L350.552 458.544C349.769 458.391 349.049 458.008 348.485 457.444L341.769 450.729L340.832 450.383L348.361 446.008L353.276 450.923L373.947 454.929L405.277 461.004L417.408 463.356C418.073 463.485 418.696 463.781 419.216 464.217L433.287 476.005L433.209 475.881L505.168 431.38L511.371 436.952L479.336 456.763L475.824 458.935L439.628 481.319L456.169 495.177L448.831 499.466ZM520.823 431.105L514.621 425.533L532.587 414.424L531.891 388.323L531.779 384.131L531.315 366.724C531.277 365.36 531.94 364.071 533.068 363.307L559.873 345.128L566.339 350.409L539.371 368.699L540.645 416.509C540.683 417.933 539.961 419.271 538.751 420.019L520.823 431.105Z" fill="#C3B075"/>
<path d="M528.877 452.681L511.371 436.952L505.168 431.38L453.717 385.153L453.367 384.999L463.167 379.305L514.621 425.533L520.823 431.105L538.547 447.029L528.877 452.681Z" fill="url(#paint9_linear)"/>
<path d="M539.98 445.283L525.98 431.283L544.647 419.284L566.647 361.949L574.647 358.616L621.98 397.283L539.98 445.283Z" fill="#9EB88D"/>
<path d="M477.091 446.061L469.091 435.395L479.757 428.728L463.757 410.949L472.203 405.172L501.091 431.839L477.091 446.061Z" fill="#A0A3A6"/>
<path d="M418.424 512.616L410.424 501.949L411.979 484.839L420.424 479.061L442.424 498.395L418.424 512.616Z" fill="#A0A3A6"/>
<path d="M513.98 418.839L480.201 389.505L487.313 385.505L509.091 404.616L513.98 401.061L516.647 387.283L526.868 389.061L527.313 410.395L513.98 418.839Z" fill="#A0A3A6"/>
<path d="M263.696 301.056H233.328V328.602H263.696V301.056Z" fill="white"/>
<path d="M256.628 306.795C255.982 306.795 255.455 307.322 255.455 307.968C255.455 308.614 255.982 309.141 256.628 309.141C257.274 309.141 257.801 308.614 257.801 307.968C257.801 307.322 257.274 306.795 256.628 306.795Z" fill="black"/>
<path d="M240.53 306.795C239.884 306.795 239.357 307.322 239.357 307.968C239.357 308.614 239.884 309.141 240.53 309.141C241.176 309.141 241.704 308.614 241.704 307.968C241.704 307.322 241.184 306.795 240.53 306.795Z" fill="black"/>
<path d="M273 292.821C273 292.821 267.691 297.967 261.714 292.16C256.457 287.052 249.574 289.525 248 290.185C246.426 289.517 239.543 287.045 234.286 292.16C228.316 297.967 223 292.821 223 292.821C223 292.821 226.156 298.561 232.474 300.699C230.098 304.479 228.695 309.134 228.695 314.168C228.695 319.536 229.779 323.954 231.435 327.585C231.465 327.563 231.487 327.548 231.509 327.526C231.739 327.318 231.999 327.103 232.237 326.835C232.497 326.583 232.727 326.278 232.972 325.974C233.209 325.655 233.44 325.313 233.655 324.957C233.848 324.585 234.093 324.229 234.249 323.828C234.42 323.435 234.613 323.049 234.739 322.64C234.873 322.239 235.036 321.846 235.125 321.445C235.222 321.051 235.34 320.665 235.415 320.294C235.481 319.923 235.541 319.574 235.6 319.247C235.667 318.92 235.697 318.623 235.719 318.356C235.749 318.089 235.771 317.858 235.786 317.665C235.823 317.279 235.845 317.057 235.845 317.057C235.845 317.057 235.845 317.279 235.853 317.665C235.853 317.858 235.853 318.096 235.853 318.363C235.86 318.631 235.853 318.942 235.823 319.269C235.801 319.603 235.771 319.967 235.749 320.346C235.712 320.724 235.637 321.125 235.578 321.541C235.533 321.957 235.407 322.38 235.311 322.811C235.222 323.249 235.066 323.672 234.932 324.103C234.806 324.541 234.598 324.949 234.427 325.365C234.234 325.773 234.026 326.167 233.803 326.538C233.566 326.902 233.35 327.266 233.091 327.57C232.853 327.897 232.586 328.172 232.348 328.439C232.229 328.558 232.11 328.669 231.999 328.781C237.598 339.621 248.312 342.762 248.312 342.762C248.312 342.762 259.323 339.235 264.855 328.098C264.706 327.934 264.558 327.763 264.424 327.57C264.164 327.258 263.949 326.902 263.711 326.538C263.489 326.167 263.281 325.766 263.088 325.365C262.924 324.942 262.709 324.541 262.583 324.103C262.442 323.672 262.286 323.242 262.204 322.811C262.108 322.38 261.989 321.957 261.937 321.541C261.877 321.125 261.803 320.724 261.766 320.346C261.736 319.967 261.714 319.603 261.692 319.269C261.662 318.935 261.655 318.631 261.662 318.363C261.662 318.096 261.662 317.858 261.669 317.665C261.669 317.279 261.669 317.057 261.669 317.057C261.669 317.057 261.692 317.279 261.729 317.665C261.751 317.858 261.773 318.089 261.796 318.356C261.818 318.623 261.855 318.928 261.914 319.247C261.974 319.574 262.033 319.923 262.1 320.294C262.174 320.665 262.286 321.044 262.39 321.445C262.479 321.846 262.642 322.239 262.776 322.64C262.902 323.049 263.095 323.435 263.266 323.828C263.422 324.229 263.667 324.585 263.86 324.957C264.083 325.313 264.313 325.655 264.543 325.974C264.795 326.278 265.026 326.583 265.278 326.835C265.315 326.872 265.345 326.902 265.382 326.939C266.934 323.427 267.936 319.21 267.936 314.176C267.936 309.052 266.488 304.323 264.038 300.506C270.023 298.227 273 292.821 273 292.821ZM240.53 314.621C236.855 314.621 233.878 311.644 233.878 307.968C233.878 304.293 236.855 301.316 240.53 301.316C244.206 301.316 247.183 304.293 247.183 307.968C247.183 311.644 244.206 314.621 240.53 314.621ZM248.646 318.534L246.404 314.614H250.881L248.646 318.534ZM256.628 314.621C252.952 314.621 249.975 311.644 249.975 307.968C249.975 304.293 252.952 301.316 256.628 301.316C260.303 301.316 263.281 304.293 263.281 307.968C263.281 311.644 260.303 314.621 256.628 314.621Z" fill="#F56565"/>
<path d="M313.696 396.056H283.328V423.602H313.696V396.056Z" fill="white"/>
<path d="M306.628 401.795C305.982 401.795 305.455 402.322 305.455 402.968C305.455 403.614 305.982 404.141 306.628 404.141C307.274 404.141 307.801 403.614 307.801 402.968C307.801 402.322 307.274 401.795 306.628 401.795Z" fill="black"/>
<path d="M290.53 401.795C289.884 401.795 289.357 402.322 289.357 402.968C289.357 403.614 289.884 404.141 290.53 404.141C291.176 404.141 291.704 403.614 291.704 402.968C291.704 402.322 291.184 401.795 290.53 401.795Z" fill="black"/>
<path d="M323 387.821C323 387.821 317.691 392.967 311.714 387.16C306.457 382.052 299.574 384.525 298 385.185C296.426 384.517 289.543 382.045 284.286 387.16C278.316 392.967 273 387.821 273 387.821C273 387.821 276.156 393.561 282.474 395.699C280.098 399.479 278.695 404.134 278.695 409.168C278.695 414.536 279.779 418.954 281.435 422.585C281.465 422.563 281.487 422.548 281.509 422.526C281.739 422.318 281.999 422.103 282.237 421.835C282.497 421.583 282.727 421.278 282.972 420.974C283.209 420.655 283.44 420.313 283.655 419.957C283.848 419.585 284.093 419.229 284.249 418.828C284.42 418.435 284.613 418.049 284.739 417.64C284.873 417.239 285.036 416.846 285.125 416.445C285.222 416.051 285.34 415.665 285.415 415.294C285.481 414.923 285.541 414.574 285.6 414.247C285.667 413.92 285.697 413.623 285.719 413.356C285.749 413.089 285.771 412.858 285.786 412.665C285.823 412.279 285.845 412.057 285.845 412.057C285.845 412.057 285.845 412.279 285.853 412.665C285.853 412.858 285.853 413.096 285.853 413.363C285.86 413.631 285.853 413.942 285.823 414.269C285.801 414.603 285.771 414.967 285.749 415.346C285.712 415.724 285.637 416.125 285.578 416.541C285.533 416.957 285.407 417.38 285.311 417.811C285.222 418.249 285.066 418.672 284.932 419.103C284.806 419.541 284.598 419.949 284.427 420.365C284.234 420.773 284.026 421.167 283.803 421.538C283.566 421.902 283.35 422.266 283.091 422.57C282.853 422.897 282.586 423.172 282.348 423.439C282.229 423.558 282.11 423.669 281.999 423.781C287.598 434.621 298.312 437.762 298.312 437.762C298.312 437.762 309.323 434.235 314.855 423.098C314.706 422.934 314.558 422.763 314.424 422.57C314.164 422.258 313.949 421.902 313.711 421.538C313.489 421.167 313.281 420.766 313.088 420.365C312.924 419.942 312.709 419.541 312.583 419.103C312.442 418.672 312.286 418.242 312.204 417.811C312.108 417.38 311.989 416.957 311.937 416.541C311.877 416.125 311.803 415.724 311.766 415.346C311.736 414.967 311.714 414.603 311.692 414.269C311.662 413.935 311.655 413.631 311.662 413.363C311.662 413.096 311.662 412.858 311.669 412.665C311.669 412.279 311.669 412.057 311.669 412.057C311.669 412.057 311.692 412.279 311.729 412.665C311.751 412.858 311.773 413.089 311.796 413.356C311.818 413.623 311.855 413.928 311.914 414.247C311.974 414.574 312.033 414.923 312.1 415.294C312.174 415.665 312.286 416.044 312.39 416.445C312.479 416.846 312.642 417.239 312.776 417.64C312.902 418.049 313.095 418.435 313.266 418.828C313.422 419.229 313.667 419.585 313.86 419.957C314.083 420.313 314.313 420.655 314.543 420.974C314.795 421.278 315.026 421.583 315.278 421.835C315.315 421.872 315.345 421.902 315.382 421.939C316.934 418.427 317.936 414.21 317.936 409.176C317.936 404.052 316.488 399.323 314.038 395.506C320.023 393.227 323 387.821 323 387.821ZM290.53 409.621C286.855 409.621 283.878 406.644 283.878 402.968C283.878 399.293 286.855 396.316 290.53 396.316C294.206 396.316 297.183 399.293 297.183 402.968C297.183 406.644 294.206 409.621 290.53 409.621ZM298.646 413.534L296.404 409.614H300.881L298.646 413.534ZM306.628 409.621C302.952 409.621 299.975 406.644 299.975 402.968C299.975 399.293 302.952 396.316 306.628 396.316C310.303 396.316 313.281 399.293 313.281 402.968C313.281 406.644 310.303 409.621 306.628 409.621Z" fill="#F56565"/>
<path d="M102.696 286.056H72.3282V313.602H102.696V286.056Z" fill="white"/>
<path d="M95.6279 291.795C94.9819 291.795 94.4547 292.322 94.4547 292.968C94.4547 293.614 94.9819 294.141 95.6279 294.141C96.2738 294.141 96.801 293.614 96.801 292.968C96.801 292.322 96.2738 291.795 95.6279 291.795Z" fill="black"/>
<path d="M79.5305 291.795C78.8845 291.795 78.3573 292.322 78.3573 292.968C78.3573 293.614 78.8845 294.141 79.5305 294.141C80.1764 294.141 80.7036 293.614 80.7036 292.968C80.7036 292.322 80.1839 291.795 79.5305 291.795Z" fill="black"/>
<path d="M112 277.821C112 277.821 106.691 282.967 100.714 277.16C95.4571 272.052 88.5741 274.525 87 275.185C85.4259 274.517 78.5429 272.045 73.286 277.16C67.3163 282.967 62 277.821 62 277.821C62 277.821 65.1556 283.561 71.4743 285.699C69.0983 289.479 67.695 294.134 67.695 299.168C67.695 304.536 68.779 308.954 70.4348 312.585C70.4645 312.563 70.4868 312.548 70.5091 312.526C70.7392 312.318 70.9991 312.103 71.2367 311.835C71.4966 311.583 71.7268 311.278 71.9718 310.974C72.2094 310.655 72.4396 310.313 72.6549 309.957C72.8479 309.585 73.093 309.229 73.2489 308.828C73.4197 308.435 73.6127 308.049 73.7389 307.64C73.8726 307.239 74.0359 306.846 74.125 306.445C74.2216 306.051 74.3404 305.665 74.4146 305.294C74.4814 304.923 74.5408 304.574 74.6002 304.247C74.6671 303.92 74.6968 303.623 74.719 303.356C74.7487 303.089 74.771 302.858 74.7859 302.665C74.823 302.279 74.8453 302.057 74.8453 302.057C74.8453 302.057 74.8453 302.279 74.8527 302.665C74.8527 302.858 74.8527 303.096 74.8527 303.363C74.8601 303.631 74.8527 303.942 74.823 304.269C74.8007 304.603 74.771 304.967 74.7487 305.346C74.7116 305.724 74.6374 306.125 74.578 306.541C74.5334 306.957 74.4072 307.38 74.3107 307.811C74.2216 308.249 74.0656 308.672 73.932 309.103C73.8058 309.541 73.5979 309.949 73.4271 310.365C73.234 310.773 73.0261 311.167 72.8034 311.538C72.5658 311.902 72.3505 312.266 72.0906 312.57C71.853 312.897 71.5857 313.172 71.3481 313.439C71.2293 313.558 71.1105 313.669 70.9991 313.781C76.5976 324.621 87.3119 327.762 87.3119 327.762C87.3119 327.762 98.3231 324.235 103.855 313.098C103.706 312.934 103.558 312.763 103.424 312.57C103.164 312.258 102.949 311.902 102.711 311.538C102.489 311.167 102.281 310.766 102.088 310.365C101.924 309.942 101.709 309.541 101.583 309.103C101.442 308.672 101.286 308.242 101.204 307.811C101.108 307.38 100.989 306.957 100.937 306.541C100.877 306.125 100.803 305.724 100.766 305.346C100.736 304.967 100.714 304.603 100.692 304.269C100.662 303.935 100.655 303.631 100.662 303.363C100.662 303.096 100.662 302.858 100.669 302.665C100.669 302.279 100.669 302.057 100.669 302.057C100.669 302.057 100.692 302.279 100.729 302.665C100.751 302.858 100.773 303.089 100.796 303.356C100.818 303.623 100.855 303.928 100.914 304.247C100.974 304.574 101.033 304.923 101.1 305.294C101.174 305.665 101.286 306.044 101.39 306.445C101.479 306.846 101.642 307.239 101.776 307.64C101.902 308.049 102.095 308.435 102.266 308.828C102.422 309.229 102.667 309.585 102.86 309.957C103.083 310.313 103.313 310.655 103.543 310.974C103.795 311.278 104.026 311.583 104.278 311.835C104.315 311.872 104.345 311.902 104.382 311.939C105.934 308.427 106.936 304.21 106.936 299.176C106.936 294.052 105.488 289.323 103.038 285.506C109.023 283.227 112 277.821 112 277.821ZM79.5304 299.621C75.8551 299.621 72.8776 296.644 72.8776 292.968C72.8776 289.293 75.8551 286.316 79.5304 286.316C83.2058 286.316 86.1833 289.293 86.1833 292.968C86.1833 296.644 83.2058 299.621 79.5304 299.621ZM87.646 303.534L85.4036 299.614H89.8809L87.646 303.534ZM95.6279 299.621C91.9525 299.621 88.9751 296.644 88.9751 292.968C88.9751 289.293 91.9525 286.316 95.6279 286.316C99.3032 286.316 102.281 289.293 102.281 292.968C102.281 296.644 99.3032 299.621 95.6279 299.621Z" fill="#F56565"/>
<path d="M206.696 244.056H176.328V271.602H206.696V244.056Z" fill="white"/>
<path d="M199.628 249.795C198.982 249.795 198.455 250.322 198.455 250.968C198.455 251.614 198.982 252.141 199.628 252.141C200.274 252.141 200.801 251.614 200.801 250.968C200.801 250.322 200.274 249.795 199.628 249.795Z" fill="black"/>
<path d="M183.53 249.795C182.884 249.795 182.357 250.322 182.357 250.968C182.357 251.614 182.884 252.141 183.53 252.141C184.176 252.141 184.704 251.614 184.704 250.968C184.704 250.322 184.184 249.795 183.53 249.795Z" fill="black"/>
<path d="M216 235.821C216 235.821 210.691 240.967 204.714 235.16C199.457 230.052 192.574 232.525 191 233.185C189.426 232.517 182.543 230.045 177.286 235.16C171.316 240.967 166 235.821 166 235.821C166 235.821 169.156 241.561 175.474 243.699C173.098 247.479 171.695 252.134 171.695 257.168C171.695 262.536 172.779 266.954 174.435 270.585C174.465 270.563 174.487 270.548 174.509 270.526C174.739 270.318 174.999 270.103 175.237 269.835C175.497 269.583 175.727 269.278 175.972 268.974C176.209 268.655 176.44 268.313 176.655 267.957C176.848 267.585 177.093 267.229 177.249 266.828C177.42 266.435 177.613 266.049 177.739 265.64C177.873 265.239 178.036 264.846 178.125 264.445C178.222 264.051 178.34 263.665 178.415 263.294C178.481 262.923 178.541 262.574 178.6 262.247C178.667 261.92 178.697 261.623 178.719 261.356C178.749 261.089 178.771 260.858 178.786 260.665C178.823 260.279 178.845 260.057 178.845 260.057C178.845 260.057 178.845 260.279 178.853 260.665C178.853 260.858 178.853 261.096 178.853 261.363C178.86 261.631 178.853 261.942 178.823 262.269C178.801 262.603 178.771 262.967 178.749 263.346C178.712 263.724 178.637 264.125 178.578 264.541C178.533 264.957 178.407 265.38 178.311 265.811C178.222 266.249 178.066 266.672 177.932 267.103C177.806 267.541 177.598 267.949 177.427 268.365C177.234 268.773 177.026 269.167 176.803 269.538C176.566 269.902 176.35 270.266 176.091 270.57C175.853 270.897 175.586 271.172 175.348 271.439C175.229 271.558 175.11 271.669 174.999 271.781C180.598 282.621 191.312 285.762 191.312 285.762C191.312 285.762 202.323 282.235 207.855 271.098C207.706 270.934 207.558 270.763 207.424 270.57C207.164 270.258 206.949 269.902 206.711 269.538C206.489 269.167 206.281 268.766 206.088 268.365C205.924 267.942 205.709 267.541 205.583 267.103C205.442 266.672 205.286 266.242 205.204 265.811C205.108 265.38 204.989 264.957 204.937 264.541C204.877 264.125 204.803 263.724 204.766 263.346C204.736 262.967 204.714 262.603 204.692 262.269C204.662 261.935 204.655 261.631 204.662 261.363C204.662 261.096 204.662 260.858 204.669 260.665C204.669 260.279 204.669 260.057 204.669 260.057C204.669 260.057 204.692 260.279 204.729 260.665C204.751 260.858 204.773 261.089 204.796 261.356C204.818 261.623 204.855 261.928 204.914 262.247C204.974 262.574 205.033 262.923 205.1 263.294C205.174 263.665 205.286 264.044 205.39 264.445C205.479 264.846 205.642 265.239 205.776 265.64C205.902 266.049 206.095 266.435 206.266 266.828C206.422 267.229 206.667 267.585 206.86 267.957C207.083 268.313 207.313 268.655 207.543 268.974C207.795 269.278 208.026 269.583 208.278 269.835C208.315 269.872 208.345 269.902 208.382 269.939C209.934 266.427 210.936 262.21 210.936 257.176C210.936 252.052 209.488 247.323 207.038 243.506C213.023 241.227 216 235.821 216 235.821ZM183.53 257.621C179.855 257.621 176.878 254.644 176.878 250.968C176.878 247.293 179.855 244.316 183.53 244.316C187.206 244.316 190.183 247.293 190.183 250.968C190.183 254.644 187.206 257.621 183.53 257.621ZM191.646 261.534L189.404 257.614H193.881L191.646 261.534ZM199.628 257.621C195.952 257.621 192.975 254.644 192.975 250.968C192.975 247.293 195.952 244.316 199.628 244.316C203.303 244.316 206.281 247.293 206.281 250.968C206.281 254.644 203.303 257.621 199.628 257.621Z" fill="#F56565"/>
<path d="M421.696 462.056H391.328V489.602H421.696V462.056Z" fill="white"/>
<path d="M414.628 467.795C413.982 467.795 413.455 468.322 413.455 468.968C413.455 469.614 413.982 470.141 414.628 470.141C415.274 470.141 415.801 469.614 415.801 468.968C415.801 468.322 415.274 467.795 414.628 467.795Z" fill="black"/>
<path d="M398.53 467.795C397.884 467.795 397.357 468.322 397.357 468.968C397.357 469.614 397.884 470.141 398.53 470.141C399.176 470.141 399.704 469.614 399.704 468.968C399.704 468.322 399.184 467.795 398.53 467.795Z" fill="black"/>
<path d="M431 453.821C431 453.821 425.691 458.967 419.714 453.16C414.457 448.052 407.574 450.525 406 451.185C404.426 450.517 397.543 448.045 392.286 453.16C386.316 458.967 381 453.821 381 453.821C381 453.821 384.156 459.561 390.474 461.699C388.098 465.479 386.695 470.134 386.695 475.168C386.695 480.536 387.779 484.954 389.435 488.585C389.465 488.563 389.487 488.548 389.509 488.526C389.739 488.318 389.999 488.103 390.237 487.835C390.497 487.583 390.727 487.278 390.972 486.974C391.209 486.655 391.44 486.313 391.655 485.957C391.848 485.585 392.093 485.229 392.249 484.828C392.42 484.435 392.613 484.049 392.739 483.64C392.873 483.239 393.036 482.846 393.125 482.445C393.222 482.051 393.34 481.665 393.415 481.294C393.481 480.923 393.541 480.574 393.6 480.247C393.667 479.92 393.697 479.623 393.719 479.356C393.749 479.089 393.771 478.858 393.786 478.665C393.823 478.279 393.845 478.057 393.845 478.057C393.845 478.057 393.845 478.279 393.853 478.665C393.853 478.858 393.853 479.096 393.853 479.363C393.86 479.631 393.853 479.942 393.823 480.269C393.801 480.603 393.771 480.967 393.749 481.346C393.712 481.724 393.637 482.125 393.578 482.541C393.533 482.957 393.407 483.38 393.311 483.811C393.222 484.249 393.066 484.672 392.932 485.103C392.806 485.541 392.598 485.949 392.427 486.365C392.234 486.773 392.026 487.167 391.803 487.538C391.566 487.902 391.35 488.266 391.091 488.57C390.853 488.897 390.586 489.172 390.348 489.439C390.229 489.558 390.11 489.669 389.999 489.781C395.598 500.621 406.312 503.762 406.312 503.762C406.312 503.762 417.323 500.235 422.855 489.098C422.706 488.934 422.558 488.763 422.424 488.57C422.164 488.258 421.949 487.902 421.711 487.538C421.489 487.167 421.281 486.766 421.088 486.365C420.924 485.942 420.709 485.541 420.583 485.103C420.442 484.672 420.286 484.242 420.204 483.811C420.108 483.38 419.989 482.957 419.937 482.541C419.877 482.125 419.803 481.724 419.766 481.346C419.736 480.967 419.714 480.603 419.692 480.269C419.662 479.935 419.655 479.631 419.662 479.363C419.662 479.096 419.662 478.858 419.669 478.665C419.669 478.279 419.669 478.057 419.669 478.057C419.669 478.057 419.692 478.279 419.729 478.665C419.751 478.858 419.773 479.089 419.796 479.356C419.818 479.623 419.855 479.928 419.914 480.247C419.974 480.574 420.033 480.923 420.1 481.294C420.174 481.665 420.286 482.044 420.39 482.445C420.479 482.846 420.642 483.239 420.776 483.64C420.902 484.049 421.095 484.435 421.266 484.828C421.422 485.229 421.667 485.585 421.86 485.957C422.083 486.313 422.313 486.655 422.543 486.974C422.795 487.278 423.026 487.583 423.278 487.835C423.315 487.872 423.345 487.902 423.382 487.939C424.934 484.427 425.936 480.21 425.936 475.176C425.936 470.052 424.488 465.323 422.038 461.506C428.023 459.227 431 453.821 431 453.821ZM398.53 475.621C394.855 475.621 391.878 472.644 391.878 468.968C391.878 465.293 394.855 462.316 398.53 462.316C402.206 462.316 405.183 465.293 405.183 468.968C405.183 472.644 402.206 475.621 398.53 475.621ZM406.646 479.534L404.404 475.614H408.881L406.646 479.534ZM414.628 475.621C410.952 475.621 407.975 472.644 407.975 468.968C407.975 465.293 410.952 462.316 414.628 462.316C418.303 462.316 421.281 465.293 421.281 468.968C421.281 472.644 418.303 475.621 414.628 475.621Z" fill="#F56565"/>
<path d="M354.696 208.056H324.328V235.602H354.696V208.056Z" fill="white"/>
<path d="M347.628 213.795C346.982 213.795 346.455 214.322 346.455 214.968C346.455 215.614 346.982 216.141 347.628 216.141C348.274 216.141 348.801 215.614 348.801 214.968C348.801 214.322 348.274 213.795 347.628 213.795Z" fill="black"/>
<path d="M331.53 213.795C330.884 213.795 330.357 214.322 330.357 214.968C330.357 215.614 330.884 216.141 331.53 216.141C332.176 216.141 332.704 215.614 332.704 214.968C332.704 214.322 332.184 213.795 331.53 213.795Z" fill="black"/>
<path d="M364 199.821C364 199.821 358.691 204.967 352.714 199.16C347.457 194.052 340.574 196.525 339 197.185C337.426 196.517 330.543 194.045 325.286 199.16C319.316 204.967 314 199.821 314 199.821C314 199.821 317.156 205.561 323.474 207.699C321.098 211.479 319.695 216.134 319.695 221.168C319.695 226.536 320.779 230.954 322.435 234.585C322.465 234.563 322.487 234.548 322.509 234.526C322.739 234.318 322.999 234.103 323.237 233.835C323.497 233.583 323.727 233.278 323.972 232.974C324.209 232.655 324.44 232.313 324.655 231.957C324.848 231.585 325.093 231.229 325.249 230.828C325.42 230.435 325.613 230.049 325.739 229.64C325.873 229.239 326.036 228.846 326.125 228.445C326.222 228.051 326.34 227.665 326.415 227.294C326.481 226.923 326.541 226.574 326.6 226.247C326.667 225.92 326.697 225.623 326.719 225.356C326.749 225.089 326.771 224.858 326.786 224.665C326.823 224.279 326.845 224.057 326.845 224.057C326.845 224.057 326.845 224.279 326.853 224.665C326.853 224.858 326.853 225.096 326.853 225.363C326.86 225.631 326.853 225.942 326.823 226.269C326.801 226.603 326.771 226.967 326.749 227.346C326.712 227.724 326.637 228.125 326.578 228.541C326.533 228.957 326.407 229.38 326.311 229.811C326.222 230.249 326.066 230.672 325.932 231.103C325.806 231.541 325.598 231.949 325.427 232.365C325.234 232.773 325.026 233.167 324.803 233.538C324.566 233.902 324.35 234.266 324.091 234.57C323.853 234.897 323.586 235.172 323.348 235.439C323.229 235.558 323.11 235.669 322.999 235.781C328.598 246.621 339.312 249.762 339.312 249.762C339.312 249.762 350.323 246.235 355.855 235.098C355.706 234.934 355.558 234.763 355.424 234.57C355.164 234.258 354.949 233.902 354.711 233.538C354.489 233.167 354.281 232.766 354.088 232.365C353.924 231.942 353.709 231.541 353.583 231.103C353.442 230.672 353.286 230.242 353.204 229.811C353.108 229.38 352.989 228.957 352.937 228.541C352.877 228.125 352.803 227.724 352.766 227.346C352.736 226.967 352.714 226.603 352.692 226.269C352.662 225.935 352.655 225.631 352.662 225.363C352.662 225.096 352.662 224.858 352.669 224.665C352.669 224.279 352.669 224.057 352.669 224.057C352.669 224.057 352.692 224.279 352.729 224.665C352.751 224.858 352.773 225.089 352.796 225.356C352.818 225.623 352.855 225.928 352.914 226.247C352.974 226.574 353.033 226.923 353.1 227.294C353.174 227.665 353.286 228.044 353.39 228.445C353.479 228.846 353.642 229.239 353.776 229.64C353.902 230.049 354.095 230.435 354.266 230.828C354.422 231.229 354.667 231.585 354.86 231.957C355.083 232.313 355.313 232.655 355.543 232.974C355.795 233.278 356.026 233.583 356.278 233.835C356.315 233.872 356.345 233.902 356.382 233.939C357.934 230.427 358.936 226.21 358.936 221.176C358.936 216.052 357.488 211.323 355.038 207.506C361.023 205.227 364 199.821 364 199.821ZM331.53 221.621C327.855 221.621 324.878 218.644 324.878 214.968C324.878 211.293 327.855 208.316 331.53 208.316C335.206 208.316 338.183 211.293 338.183 214.968C338.183 218.644 335.206 221.621 331.53 221.621ZM339.646 225.534L337.404 221.614H341.881L339.646 225.534ZM347.628 221.621C343.952 221.621 340.975 218.644 340.975 214.968C340.975 211.293 343.952 208.316 347.628 208.316C351.303 208.316 354.281 211.293 354.281 214.968C354.281 218.644 351.303 221.621 347.628 221.621Z" fill="#F56565"/>
<path d="M431.696 360.056H401.328V387.602H431.696V360.056Z" fill="white"/>
<path d="M424.628 365.795C423.982 365.795 423.455 366.322 423.455 366.968C423.455 367.614 423.982 368.141 424.628 368.141C425.274 368.141 425.801 367.614 425.801 366.968C425.801 366.322 425.274 365.795 424.628 365.795Z" fill="black"/>
<path d="M408.53 365.795C407.884 365.795 407.357 366.322 407.357 366.968C407.357 367.614 407.884 368.141 408.53 368.141C409.176 368.141 409.704 367.614 409.704 366.968C409.704 366.322 409.184 365.795 408.53 365.795Z" fill="black"/>
<path d="M441 351.821C441 351.821 435.691 356.967 429.714 351.16C424.457 346.052 417.574 348.525 416 349.185C414.426 348.517 407.543 346.045 402.286 351.16C396.316 356.967 391 351.821 391 351.821C391 351.821 394.156 357.561 400.474 359.699C398.098 363.479 396.695 368.134 396.695 373.168C396.695 378.536 397.779 382.954 399.435 386.585C399.465 386.563 399.487 386.548 399.509 386.526C399.739 386.318 399.999 386.103 400.237 385.835C400.497 385.583 400.727 385.278 400.972 384.974C401.209 384.655 401.44 384.313 401.655 383.957C401.848 383.585 402.093 383.229 402.249 382.828C402.42 382.435 402.613 382.049 402.739 381.64C402.873 381.239 403.036 380.846 403.125 380.445C403.222 380.051 403.34 379.665 403.415 379.294C403.481 378.923 403.541 378.574 403.6 378.247C403.667 377.92 403.697 377.623 403.719 377.356C403.749 377.089 403.771 376.858 403.786 376.665C403.823 376.279 403.845 376.057 403.845 376.057C403.845 376.057 403.845 376.279 403.853 376.665C403.853 376.858 403.853 377.096 403.853 377.363C403.86 377.631 403.853 377.942 403.823 378.269C403.801 378.603 403.771 378.967 403.749 379.346C403.712 379.724 403.637 380.125 403.578 380.541C403.533 380.957 403.407 381.38 403.311 381.811C403.222 382.249 403.066 382.672 402.932 383.103C402.806 383.541 402.598 383.949 402.427 384.365C402.234 384.773 402.026 385.167 401.803 385.538C401.566 385.902 401.35 386.266 401.091 386.57C400.853 386.897 400.586 387.172 400.348 387.439C400.229 387.558 400.11 387.669 399.999 387.781C405.598 398.621 416.312 401.762 416.312 401.762C416.312 401.762 427.323 398.235 432.855 387.098C432.706 386.934 432.558 386.763 432.424 386.57C432.164 386.258 431.949 385.902 431.711 385.538C431.489 385.167 431.281 384.766 431.088 384.365C430.924 383.942 430.709 383.541 430.583 383.103C430.442 382.672 430.286 382.242 430.204 381.811C430.108 381.38 429.989 380.957 429.937 380.541C429.877 380.125 429.803 379.724 429.766 379.346C429.736 378.967 429.714 378.603 429.692 378.269C429.662 377.935 429.655 377.631 429.662 377.363C429.662 377.096 429.662 376.858 429.669 376.665C429.669 376.279 429.669 376.057 429.669 376.057C429.669 376.057 429.692 376.279 429.729 376.665C429.751 376.858 429.773 377.089 429.796 377.356C429.818 377.623 429.855 377.928 429.914 378.247C429.974 378.574 430.033 378.923 430.1 379.294C430.174 379.665 430.286 380.044 430.39 380.445C430.479 380.846 430.642 381.239 430.776 381.64C430.902 382.049 431.095 382.435 431.266 382.828C431.422 383.229 431.667 383.585 431.86 383.957C432.083 384.313 432.313 384.655 432.543 384.974C432.795 385.278 433.026 385.583 433.278 385.835C433.315 385.872 433.345 385.902 433.382 385.939C434.934 382.427 435.936 378.21 435.936 373.176C435.936 368.052 434.488 363.323 432.038 359.506C438.023 357.227 441 351.821 441 351.821ZM408.53 373.621C404.855 373.621 401.878 370.644 401.878 366.968C401.878 363.293 404.855 360.316 408.53 360.316C412.206 360.316 415.183 363.293 415.183 366.968C415.183 370.644 412.206 373.621 408.53 373.621ZM416.646 377.534L414.404 373.614H418.881L416.646 377.534ZM424.628 373.621C420.952 373.621 417.975 370.644 417.975 366.968C417.975 363.293 420.952 360.316 424.628 360.316C428.303 360.316 431.281 363.293 431.281 366.968C431.281 370.644 428.303 373.621 424.628 373.621Z" fill="#F56565"/>
<path d="M507.696 389.056H477.328V416.602H507.696V389.056Z" fill="white"/>
<path d="M500.628 394.795C499.982 394.795 499.455 395.322 499.455 395.968C499.455 396.614 499.982 397.141 500.628 397.141C501.274 397.141 501.801 396.614 501.801 395.968C501.801 395.322 501.274 394.795 500.628 394.795Z" fill="black"/>
<path d="M484.53 394.795C483.884 394.795 483.357 395.322 483.357 395.968C483.357 396.614 483.884 397.141 484.53 397.141C485.176 397.141 485.704 396.614 485.704 395.968C485.704 395.322 485.184 394.795 484.53 394.795Z" fill="black"/>
<path d="M517 380.821C517 380.821 511.691 385.967 505.714 380.16C500.457 375.052 493.574 377.525 492 378.185C490.426 377.517 483.543 375.045 478.286 380.16C472.316 385.967 467 380.821 467 380.821C467 380.821 470.156 386.561 476.474 388.699C474.098 392.479 472.695 397.134 472.695 402.168C472.695 407.536 473.779 411.954 475.435 415.585C475.465 415.563 475.487 415.548 475.509 415.526C475.739 415.318 475.999 415.103 476.237 414.835C476.497 414.583 476.727 414.278 476.972 413.974C477.209 413.655 477.44 413.313 477.655 412.957C477.848 412.585 478.093 412.229 478.249 411.828C478.42 411.435 478.613 411.049 478.739 410.64C478.873 410.239 479.036 409.846 479.125 409.445C479.222 409.051 479.34 408.665 479.415 408.294C479.481 407.923 479.541 407.574 479.6 407.247C479.667 406.92 479.697 406.623 479.719 406.356C479.749 406.089 479.771 405.858 479.786 405.665C479.823 405.279 479.845 405.057 479.845 405.057C479.845 405.057 479.845 405.279 479.853 405.665C479.853 405.858 479.853 406.096 479.853 406.363C479.86 406.631 479.853 406.942 479.823 407.269C479.801 407.603 479.771 407.967 479.749 408.346C479.712 408.724 479.637 409.125 479.578 409.541C479.533 409.957 479.407 410.38 479.311 410.811C479.222 411.249 479.066 411.672 478.932 412.103C478.806 412.541 478.598 412.949 478.427 413.365C478.234 413.773 478.026 414.167 477.803 414.538C477.566 414.902 477.35 415.266 477.091 415.57C476.853 415.897 476.586 416.172 476.348 416.439C476.229 416.558 476.11 416.669 475.999 416.781C481.598 427.621 492.312 430.762 492.312 430.762C492.312 430.762 503.323 427.235 508.855 416.098C508.706 415.934 508.558 415.763 508.424 415.57C508.164 415.258 507.949 414.902 507.711 414.538C507.489 414.167 507.281 413.766 507.088 413.365C506.924 412.942 506.709 412.541 506.583 412.103C506.442 411.672 506.286 411.242 506.204 410.811C506.108 410.38 505.989 409.957 505.937 409.541C505.877 409.125 505.803 408.724 505.766 408.346C505.736 407.967 505.714 407.603 505.692 407.269C505.662 406.935 505.655 406.631 505.662 406.363C505.662 406.096 505.662 405.858 505.669 405.665C505.669 405.279 505.669 405.057 505.669 405.057C505.669 405.057 505.692 405.279 505.729 405.665C505.751 405.858 505.773 406.089 505.796 406.356C505.818 406.623 505.855 406.928 505.914 407.247C505.974 407.574 506.033 407.923 506.1 408.294C506.174 408.665 506.286 409.044 506.39 409.445C506.479 409.846 506.642 410.239 506.776 410.64C506.902 411.049 507.095 411.435 507.266 411.828C507.422 412.229 507.667 412.585 507.86 412.957C508.083 413.313 508.313 413.655 508.543 413.974C508.795 414.278 509.026 414.583 509.278 414.835C509.315 414.872 509.345 414.902 509.382 414.939C510.934 411.427 511.936 407.21 511.936 402.176C511.936 397.052 510.488 392.323 508.038 388.506C514.023 386.227 517 380.821 517 380.821ZM484.53 402.621C480.855 402.621 477.878 399.644 477.878 395.968C477.878 392.293 480.855 389.316 484.53 389.316C488.206 389.316 491.183 392.293 491.183 395.968C491.183 399.644 488.206 402.621 484.53 402.621ZM492.646 406.534L490.404 402.614H494.881L492.646 406.534ZM500.628 402.621C496.952 402.621 493.975 399.644 493.975 395.968C493.975 392.293 496.952 389.316 500.628 389.316C504.303 389.316 507.281 392.293 507.281 395.968C507.281 399.644 504.303 402.621 500.628 402.621Z" fill="#F56565"/>
<path d="M488.696 314.056H458.328V341.602H488.696V314.056Z" fill="white"/>
<path d="M481.628 319.795C480.982 319.795 480.455 320.322 480.455 320.968C480.455 321.614 480.982 322.141 481.628 322.141C482.274 322.141 482.801 321.614 482.801 320.968C482.801 320.322 482.274 319.795 481.628 319.795Z" fill="black"/>
<path d="M465.53 319.795C464.884 319.795 464.357 320.322 464.357 320.968C464.357 321.614 464.884 322.141 465.53 322.141C466.176 322.141 466.704 321.614 466.704 320.968C466.704 320.322 466.184 319.795 465.53 319.795Z" fill="black"/>
<path d="M498 305.821C498 305.821 492.691 310.967 486.714 305.16C481.457 300.052 474.574 302.525 473 303.185C471.426 302.517 464.543 300.045 459.286 305.16C453.316 310.967 448 305.821 448 305.821C448 305.821 451.156 311.561 457.474 313.699C455.098 317.479 453.695 322.134 453.695 327.168C453.695 332.536 454.779 336.954 456.435 340.585C456.465 340.563 456.487 340.548 456.509 340.526C456.739 340.318 456.999 340.103 457.237 339.835C457.497 339.583 457.727 339.278 457.972 338.974C458.209 338.655 458.44 338.313 458.655 337.957C458.848 337.585 459.093 337.229 459.249 336.828C459.42 336.435 459.613 336.049 459.739 335.64C459.873 335.239 460.036 334.846 460.125 334.445C460.222 334.051 460.34 333.665 460.415 333.294C460.481 332.923 460.541 332.574 460.6 332.247C460.667 331.92 460.697 331.623 460.719 331.356C460.749 331.089 460.771 330.858 460.786 330.665C460.823 330.279 460.845 330.057 460.845 330.057C460.845 330.057 460.845 330.279 460.853 330.665C460.853 330.858 460.853 331.096 460.853 331.363C460.86 331.631 460.853 331.942 460.823 332.269C460.801 332.603 460.771 332.967 460.749 333.346C460.712 333.724 460.637 334.125 460.578 334.541C460.533 334.957 460.407 335.38 460.311 335.811C460.222 336.249 460.066 336.672 459.932 337.103C459.806 337.541 459.598 337.949 459.427 338.365C459.234 338.773 459.026 339.167 458.803 339.538C458.566 339.902 458.35 340.266 458.091 340.57C457.853 340.897 457.586 341.172 457.348 341.439C457.229 341.558 457.11 341.669 456.999 341.781C462.598 352.621 473.312 355.762 473.312 355.762C473.312 355.762 484.323 352.235 489.855 341.098C489.706 340.934 489.558 340.763 489.424 340.57C489.164 340.258 488.949 339.902 488.711 339.538C488.489 339.167 488.281 338.766 488.088 338.365C487.924 337.942 487.709 337.541 487.583 337.103C487.442 336.672 487.286 336.242 487.204 335.811C487.108 335.38 486.989 334.957 486.937 334.541C486.877 334.125 486.803 333.724 486.766 333.346C486.736 332.967 486.714 332.603 486.692 332.269C486.662 331.935 486.655 331.631 486.662 331.363C486.662 331.096 486.662 330.858 486.669 330.665C486.669 330.279 486.669 330.057 486.669 330.057C486.669 330.057 486.692 330.279 486.729 330.665C486.751 330.858 486.773 331.089 486.796 331.356C486.818 331.623 486.855 331.928 486.914 332.247C486.974 332.574 487.033 332.923 487.1 333.294C487.174 333.665 487.286 334.044 487.39 334.445C487.479 334.846 487.642 335.239 487.776 335.64C487.902 336.049 488.095 336.435 488.266 336.828C488.422 337.229 488.667 337.585 488.86 337.957C489.083 338.313 489.313 338.655 489.543 338.974C489.795 339.278 490.026 339.583 490.278 339.835C490.315 339.872 490.345 339.902 490.382 339.939C491.934 336.427 492.936 332.21 492.936 327.176C492.936 322.052 491.488 317.323 489.038 313.506C495.023 311.227 498 305.821 498 305.821ZM465.53 327.621C461.855 327.621 458.878 324.644 458.878 320.968C458.878 317.293 461.855 314.316 465.53 314.316C469.206 314.316 472.183 317.293 472.183 320.968C472.183 324.644 469.206 327.621 465.53 327.621ZM473.646 331.534L471.404 327.614H475.881L473.646 331.534ZM481.628 327.621C477.952 327.621 474.975 324.644 474.975 320.968C474.975 317.293 477.952 314.316 481.628 314.316C485.303 314.316 488.281 317.293 488.281 320.968C488.281 324.644 485.303 327.621 481.628 327.621Z" fill="#F56565"/>
<defs>
<linearGradient id="paint0_linear" x1="235.983" y1="542.98" x2="407.539" y2="167.869" gradientUnits="userSpaceOnUse">
<stop stop-color="#3B8BC3"/>
<stop offset="0.0353535" stop-color="#3B8BC3"/>
<stop offset="1" stop-color="#7DD4E3"/>
</linearGradient>
<linearGradient id="paint1_linear" x1="362.357" y1="360.697" x2="7.24661" y2="210.92" gradientUnits="userSpaceOnUse">
<stop stop-color="#F79880"/>
<stop offset="0.0353535" stop-color="#F79880"/>
<stop offset="1" stop-color="#FBEE94"/>
</linearGradient>
<linearGradient id="paint2_linear" x1="478.788" y1="628.775" x2="237.899" y2="165.664" gradientUnits="userSpaceOnUse">
<stop stop-color="#BCBBC0"/>
<stop offset="0.0757576" stop-color="#BCBBC0"/>
<stop offset="1" stop-color="#C8C9CA"/>
</linearGradient>
<linearGradient id="paint3_linear" x1="478.788" y1="628.775" x2="237.899" y2="165.664" gradientUnits="userSpaceOnUse">
<stop stop-color="#BCBBC0"/>
<stop offset="0.0757576" stop-color="#BCBBC0"/>
<stop offset="1" stop-color="#C8C9CA"/>
</linearGradient>
<linearGradient id="paint4_linear" x1="235.983" y1="542.98" x2="407.539" y2="167.869" gradientUnits="userSpaceOnUse">
<stop stop-color="#2D6C9D"/>
<stop offset="0.0353535" stop-color="#2D6C9D"/>
<stop offset="1" stop-color="#51C5C8"/>
</linearGradient>
<linearGradient id="paint5_linear" x1="478.788" y1="628.774" x2="237.899" y2="165.664" gradientUnits="userSpaceOnUse">
<stop stop-color="#BCBBC0"/>
<stop offset="0.0757576" stop-color="#BCBBC0"/>
<stop offset="1" stop-color="#C8C9CA"/>
</linearGradient>
<linearGradient id="paint6_linear" x1="362.357" y1="360.697" x2="7.24671" y2="210.92" gradientUnits="userSpaceOnUse">
<stop stop-color="#C67865"/>
<stop offset="0.0353535" stop-color="#C67865"/>
<stop offset="1" stop-color="#C3BA74"/>
</linearGradient>
<linearGradient id="paint7_linear" x1="478.788" y1="628.775" x2="237.899" y2="165.664" gradientUnits="userSpaceOnUse">
<stop stop-color="#BCBBC0"/>
<stop offset="0.0757576" stop-color="#BCBBC0"/>
<stop offset="1" stop-color="#C8C9CA"/>
</linearGradient>
<linearGradient id="paint8_linear" x1="235.983" y1="542.98" x2="407.539" y2="167.869" gradientUnits="userSpaceOnUse">
<stop stop-color="#2D6C9D"/>
<stop offset="0.0353535" stop-color="#2D6C9D"/>
<stop offset="1" stop-color="#51C5C8"/>
</linearGradient>
<linearGradient id="paint9_linear" x1="362.357" y1="360.697" x2="7.24664" y2="210.92" gradientUnits="userSpaceOnUse">
<stop stop-color="#C67865"/>
<stop offset="0.0353535" stop-color="#C67865"/>
<stop offset="1" stop-color="#C3BA74"/>
</linearGradient>
</defs>
</svg>
