<?xml version="1.0" encoding="utf-8"?>
<!-- Generator: Adobe Illustrator 22.0.0, SVG Export Plug-In . SVG Version: 6.00 Build 0)  -->
<svg width="465" height="725" viewBox="0 0 465 725" fill="none" xmlns="http://www.w3.org/2000/svg">
<rect x="1" width="463" height="725" fill="#FD4345"/>
<path d="M179.8 137.3C149.2 113.5 100.6 125.3 78.5 155.3C68.2 169.3 66.3 187.4 67.8 204.3C68.5 211.8 70.4 220.7 74.7 227.3C70.4 243.4 123.1 248.2 130.4 248.6C142.7 249.3 154.1 249.3 165.6 244.4C179.5 238.4 190.7 227.5 197 213.8C208.8 188.1 202.5 155 179.8 137.3ZM144.3 241.2C139.7 241.3 110.9 239.4 94.4 234.9C95.5 232.8 94.8 229.8 91.7 229.6C88.3 229.4 85.5 228.1 83.3 226.2C85 223 82 220.1 79.2 221.2C71.2 207 74.9 178.8 79.7 168.2C94.1 136.6 141 122.3 170.5 140.4C213.6 166.7 195.6 240 144.3 241.2Z" fill="black"/>
<path d="M407.7 180.6C401.9 151.4 377.5 127.1 347.7 123C316.4 118.7 279.6 136.3 271.7 168.5C266.2 191.2 271.5 242.7 299.1 251.3C316.7 264.8 351.8 257.6 369.1 251.1C397.1 240.4 413.4 209.6 407.7 180.6ZM373 240.7C362.1 247 348.2 249.2 335.9 250.1C329 250.6 319.2 251 311.2 248.5C311.1 248.5 311 248.4 311 248.4C309.9 248.1 308.9 247.7 307.8 247.3C304 245.6 300.9 243.1 299 239.3C297.8 236.9 295.3 236.7 293.5 237.7C280 223.3 276.3 199.1 277.9 180.2C280.5 148.9 308.9 129.8 339.2 130C395.6 130.5 425.8 210.2 373 240.7Z" fill="black"/>
<path d="M139.3 151.4C91.3 146.4 83.4 220.9 131.5 226C179.5 231 187.4 156.4 139.3 151.4Z" fill="black"/>
<path d="M337.8 155.6C329.2 154.8 320.4 156.8 313.4 162C288.2 180.7 299.2 222.6 330.4 225.9C359.3 228.9 382 197.8 365.7 171.8C359.7 162.3 348.9 156.6 337.8 155.6Z" fill="black"/>
<path d="M259.4 221C249.9 215 238.1 215.4 227.4 216.4C216.3 217.4 202.7 219 194 226.6C192.6 227.8 193 230.2 194.3 231C194 232.3 194.4 233.7 195.2 234.7C206.9 248.9 215.7 265.2 232.5 274.1C234.8 275.3 236.9 274.9 238.3 273.7C238.5 273.8 238.8 273.8 239.1 273.9C240.9 274.2 242.8 273.2 243.9 271.8C253.2 259.3 281.5 234.9 259.4 221ZM250.9 245.6C246.5 251.3 241.5 256.6 237.4 262.5C237.3 262.4 237.2 262.3 237 262.3C222.5 254.9 216 238.7 203.1 229.4C217.4 225.8 233 222.5 247.1 226.4C259.3 229.9 257.2 237.4 250.9 245.6Z" fill="black"/>
<path d="M459.4 336.6C453.7 304.6 443.7 272.6 429 243.5C428.9 243.3 428.8 243.2 428.6 243C432.1 202.3 432.2 160.3 421 121.2C419.3 115.2 417.1 109.3 414.7 103.5C433.6 100.7 469 98.8 462.7 74C462.2 72.1 461.6 70.4 460.8 68.9C461.8 67.4 461.9 65.4 460.9 63.9C460.4 62 459 60.4 456.7 60.3C455.5 60.3 454.4 60.3 453.3 60.3C445.3 55.4 433.9 56.7 423.5 61.6C426.2 58.7 428.7 55.9 430.8 53.4C437.6 45.3 445.3 33.6 444.7 22.6C444.7 22.3 444.7 22.1 444.6 21.8C444.2 17.6 442.7 13.5 439.3 9.79999C414.1 -18 383.7 27.7 381.1 57.2C381 57.2 381 57.3 380.9 57.3C364.1 44.4 343.5 37.6 322.4 34.6C293.9 30.6 265 32.3 236.3 33C207.7 33.8 179 32.7 150.5 36.6C130.9 39.3 111.5 44.7 94.1 53.9C93.6 50.4 93.3 45.3 93.1 43.5C92.4 36.4 91.9 29.2 90.3 22.2C87.6 10.2 80.8 -1.39999 66.8 0.700012C58.8 1.90001 54.4 6.10001 52.6 11.7C51.2 12.8 50.3 14.6 50.9 16.4C51.1 16.9 51.3 17.5 51.5 18C51.4 22.2 52.2 26.7 53.6 31C56.5 39.6 60.9 47.7 65.8 55.3C67.8 58.5 70.5 63.6 73.7 67.4C73.4 67.6 73.1 67.8 72.8 68.1C71.8 68.9 70.9 69.8 70 70.6C69.3 69.5 68.6 68.4 67.9 67.3C67 64.3 65.4 61.8 63.2 59.2C63.1 59.1 63 58.9 63 58.8C58.3 51.3 53.4 43.8 47.5 37.3C37.4 26.2 23 19.3 10.4 31.1C-17.1 57.1 34.1 80.1 55.9 87.2C46 102.2 40.7 119.6 38.2 138.2C34.5 166.1 36.6 194.2 38.4 222.2C38.6 224.7 38.8 227.2 38.9 229.7C38.5 229.8 38.2 230 38 230.4C35.3 235.7 35.2 242 33.7 247.8C31.8 255.1 29.6 262.4 27.4 269.6C22.3 285.9 17.7 302.1 14 318.8C7.4 348.3 1.5 378.5 1 408.8C0.600004 409.3 0.500004 410 1 410.8C1 410.8 1.00001 410.9 1.10001 410.9C1.10001 414.2 1.10002 417.5 1.20002 420.8C2.60002 461.5 14.7 529.8 64 538.3C64.2 539.4 64.4 540.6 64.6 541.7C70.1 567.3 79.6 593.9 103.7 607.3C108.1 609.8 112.7 611.6 117.5 613.2C117.8 617.8 119.6 621.6 122.3 624.7C122.1 626.7 123.1 628.8 125.4 629.2C126.7 629.5 128 629.8 129.3 630.1C131.3 631.1 133.5 631.9 135.7 632.4C135.2 647.6 135.9 662.7 138.4 677.8C138.4 677.9 138.5 677.9 138.5 678C131.1 688.3 122.2 697.4 113 706.3C110 709.2 113.1 715.3 117.3 713.7C123.7 711.3 128.1 707.4 132.1 701.9C132.6 701.2 132.5 700.3 132 699.6C133.4 698.1 134.6 696.6 135.9 695C135.7 697.5 135.6 700 135.5 702.4C135.4 705.4 134.3 712.2 139.2 712.2C144.1 712.2 143.1 705.4 142.9 702.4C142.7 697.2 142.3 692 141.8 686.8C142 686.5 142.2 686.2 142.4 685.8C147.5 688.5 152.7 696.5 155.4 699.8C160.8 706.1 166 712.6 172.5 717.8C175.7 720.4 181.3 718.1 179.9 713.5C178.7 709.5 177.3 706.3 173.7 704.1C172.9 703.6 171.8 703.6 170.9 704C166.2 699 161.8 693.7 156.8 689C153.3 685.7 149.5 682.4 145.1 681.1C146.2 679 147.2 676.8 148.1 674.5C148.9 672.3 147.1 670.8 145.2 670.7C143.4 658.2 143 645.6 142.5 633C150.7 632.7 158.2 628.3 160 618.8C164.2 618.9 168.4 618.8 172.5 618.8C182.6 618.6 192.6 617.9 202.7 617.4C211.9 620 221.7 621.3 231.8 621.8C233.5 628 237.5 633.7 242.8 637.3C243.9 639.3 245.3 641.3 246.9 643.3C247.2 648.6 247.4 653.8 247.5 659.1C247.6 666.2 247.5 673.4 246.4 680.5C245.8 684.3 244 688.3 244 692.2C243.8 692.2 243.6 692.2 243.4 692.3C242.7 692.4 242.2 692.8 241.9 693.4C239.1 694.4 236.4 695.7 233.9 697.3C228.6 700.5 223.6 704.5 218.7 708.3C214.3 711.8 220.5 717.9 224.9 714.5C229 711.3 232.9 707.9 237.2 704.9C236.4 707.9 236.1 711 236.4 714.3C237 720.3 241.2 727.4 247.9 723.3C249.1 722.5 249 721 247.9 720.2C243.1 716.5 242.6 707.3 244.2 700.6C244.4 700.5 244.6 700.4 244.8 700.3C245.9 699.7 247.3 698.6 248.6 697.7C252.3 698.7 255.7 701.2 258.9 703.6C264.7 707.9 270.2 712.4 276.6 715.8C279.1 717.1 282.3 716 283.1 713.1C284.6 707.6 285.8 701.3 282.3 696.4C281.2 694.9 278.6 694.4 277.6 696.4C276.4 699.1 276 701.9 275.6 704.7C270.6 701.4 266.1 697.5 260.9 694.5C258.1 692.9 255.6 692.2 252.9 691.9C256.7 684 256.1 670.5 256.1 664.3C256.1 656.7 255.9 649.1 255.4 641.5C264.9 641.4 269.3 634.7 270.4 626.8C271.3 625.8 271.5 624.2 270.7 623.3C270.7 621.9 270.7 620.5 270.5 619.1C292.7 614.8 314 606.1 330.5 593.6C348 580.4 357.4 560.4 365.5 540.3C373.7 534.7 380.7 523.6 387.4 516.8C396.9 507.2 406.6 497.8 416 488.1C433.3 469.9 450 449.7 458.1 425.6C467.9 397.5 464.5 365.3 459.4 336.6ZM428.1 10.4C425.9 9.29999 423.4 10.2 422.3 12.1C422.1 12.1 421.9 12.1 421.8 12.1H421.7C420.9 11.4 420.1 10.7 419.3 10.1C422.3 9.00001 425.3 8.99999 428.1 10.4ZM33.8 37.2C33.2 36.8 32.5 36.6 31.9 36.6C31 35.8 30 35 29 34.3C32.6 35.4 36.1 37.9 39.2 41.1C37.4 39.8 35.7 38.4 33.8 37.2ZM388.5 62.8C389.2 63.2 389.9 63.6 390.7 63.9C391.5 65.5 392.4 67.1 393.5 68.6C394.4 69.8 395.9 70.7 397.4 70.8C396.9 71.1 396.5 71.4 396 71.7C394.4 69.7 392.6 67.8 390.8 65.9C389.9 64.9 388.9 64.1 387.9 63.2C388.1 63.1 388.3 63 388.5 62.8ZM119 52.9C145.2 44.3 173.1 42.7 200.4 42.4C226.6 42 252.9 41.1 279.1 41C306.4 41 335.4 42.4 360.3 54.7C364.2 56.6 367.8 58.9 371.2 61.3C339.8 73.1 306.5 74.6 272.9 74.4C248.2 70.8 223.5 69 199.6 73.8C187.4 73.7 175.2 73.5 163 72.8C158.8 72.6 154.5 72 150.3 71.4C136.8 65.8 122.3 61.5 109.8 63.6C106.4 63.1 103 62.6 99.7 62.3C99.4 62 99.1 61.8 98.7 61.6C105.3 58.2 112.1 55.2 119 52.9ZM71.1 82.6C71.5 82.6 71.9 82.4 72.3 82.3C72.7 83.3 73.6 84.1 74.9 84.7C74.6 85.2 74.4 85.7 74.3 86.2C72.6 85.7 70.8 85.2 69.1 85C69.8 84.1 70.4 83.3 71.1 82.6ZM54.9 108C57.2 102.1 60.3 96.7 63.9 91.6C85.1 101.1 108.4 106.4 131.4 108.8C166.9 112.6 202.8 114.3 238.5 114.3C242.7 114.3 246.8 114.3 251 114.3C251.8 115.2 252.9 115.9 254.2 116C273.5 118.2 294.3 116.5 314.5 112.3C329.5 111.2 344.4 109.4 359.1 106.6C369.8 104.5 385 101.7 395.1 94.4C395.5 95.9 396.5 97.1 398.2 97.7C399.7 98.2 401.3 98.5 402.9 98.9C403.1 99.3 403.3 99.6 403.5 100C403.5 101.4 404.1 102.8 405.2 103.7C424.2 145.7 423.3 195.8 419.8 240.7C418.8 253.3 417.5 265.8 415.9 278.2C415.4 278.2 414.9 278.2 414.4 278.3C385.9 286.2 355.9 289.3 326.6 293.2C295.6 297.3 264.4 299.6 233.2 300C203.3 300.4 173.5 298.5 143.6 296.1C128.1 294.8 112.5 294.1 97 292.8C82.3 291.6 68.2 287.7 53.4 288.5C49.9 255.1 46.8 221.6 45.6 187.9C44.6 161.3 44.9 133.2 54.9 108ZM10.2 409C10.7 373.2 18.6 337.1 27.1 302.5C30.4 289 35 275.8 38.5 262.3C39.1 259.8 40 256.9 40.9 253.7C42.4 272.3 44.2 290.8 46.2 309.4C45.4 310.4 45.4 312.1 46.6 312.8C47.2 318.6 47.8 324.3 48.5 330.1C52.7 364.4 55.8 398.5 56.9 433C50.3 431.8 43.2 431.4 37.5 429.7C26.8 426.5 18.4 420.8 10.3 413.8C10.2 412.2 10.1 410.6 10.2 409ZM12 444.3C19.5 450.7 29.7 455.2 37.7 458.6C41.9 460.4 50.3 464 57.5 464.6C58 486.3 59 508.1 62.4 529.5C29.7 514.4 16.4 479.4 12 444.3ZM255.2 634.1C255.2 633.7 255.1 633.2 255.1 632.8C255.3 632.3 255.5 631.8 255.6 631.2C257.7 630.8 259.8 630.3 261.9 629.9C260.8 632.3 258.6 634 255.2 634.1ZM363.3 522.9C356.9 539 350.4 556.9 340.6 571.3C325.9 592.7 298.2 603.4 273.9 608.7C249.2 614.2 221.8 615.2 197.7 606.6C194.5 605.5 192.5 607.9 192.3 610.6C181.5 610.8 170.3 611.1 159.2 610.6C157.8 609.5 155.8 609.4 154.2 610.3C149.5 610 144.9 609.6 140.4 608.9C140 608.7 139.6 608.7 139.2 608.7C114.3 604.9 92.4 594.5 81.7 567.3C70.3 538.4 67.9 506.7 66.8 476C66.6 471.5 66.5 467 66.4 462.5C67.2 461.9 67.9 461.2 68.5 460.4C69.8 458.3 68.5 455.4 66.2 454.7C66.1 450.7 66 446.7 65.9 442.7C67.2 442.6 68.4 442.4 69.6 442.1C71.8 441.5 71.9 438.7 70.2 437.5C68.9 436.5 67.3 435.8 65.7 435.2C65.2 415.9 64.5 396.6 62.7 377.3C60.7 356.4 58.5 335.6 56.2 314.7C64.1 316.2 72.2 317.3 80.3 318.2C82.9 319 85.8 319.5 88.7 319.4C89.1 319.4 89.4 319.3 89.7 319.2C105.9 320.7 122.2 321.7 138.1 323C151.9 324.1 165.7 325.1 179.6 325.9C179.7 326 179.8 326.1 179.9 326.2C190.8 334.5 212.5 333.4 226.8 327.8C229.3 327.8 231.8 327.9 234.3 328C269.6 328.4 304.8 327 339.7 322.6C342.2 322.4 344.8 322.1 347.4 321.9C358.1 321.1 368.8 320.9 379.4 319.8C388.2 320.8 404.7 319.5 411.2 311.5C407.9 332.7 404.3 353.9 401 375C395.7 408.2 389.9 441 380.4 473.3C375.3 490.1 369.7 506.7 363.3 522.9ZM403.4 488.7C395.1 497.2 386.5 505.4 378.3 513.9C377.3 514.9 376.3 515.9 375.1 517C382.9 496.2 389.4 475 394.8 453.5C405.6 454.5 417.4 452.9 427.7 450.8C430.1 450.3 433.7 449.5 437.4 448.4C427.9 463.1 415.6 476.3 403.4 488.7ZM451.7 416.7C450.1 416.5 448.9 418 449.2 419.5C449.3 420.2 432.9 423.4 429.5 424C422.7 425.2 415.9 426.3 409 427.5C408.2 427.4 407.3 427.2 406.5 427.2C405.5 427.1 404.4 427.7 403.6 428.4C402.6 428.6 401.6 428.8 400.5 428.9C400.9 426.9 401.4 425 401.8 423C411.7 373.7 419.5 323.1 425.4 273.2C426.1 267.1 426.8 261 427.4 254.9C437 281 446 307.2 451 334.7C455.8 360.6 458.6 390.5 451.7 416.7Z" fill="black"/>
<path d="M114 375.9C113.1 373 112.9 369.7 112.4 366.7C111.6 360.9 110.7 354.1 106.7 349.6C105 347.6 101.6 349.7 102.3 352.1C104.1 357.7 102.1 390.1 113.9 385.7C115.2 385.2 116.3 384.1 116.2 382.6C116.2 380 114.8 378.3 114 375.9Z" fill="black"/>
<path d="M158.2 385.1C152.9 376.1 156.2 365.6 156.1 355.8C156.1 352.8 151.4 351.1 150 354.1C145.2 364.7 144.7 379.3 150.5 389.5C153.4 394.6 161.1 390.1 158.2 385.1Z" fill="black"/>
<path d="M193 373.2C192.4 368.1 194.4 360.9 192.2 356.3C191.7 355.2 190.2 355.1 189.2 355.5C183.5 358.2 184.1 369.9 184.6 375C185.1 380.7 185.9 391.3 192.6 393.1C194.1 393.5 195.7 392.6 196.1 391.1C197.6 385.8 193.6 378.7 193 373.2Z" fill="black"/>
<path d="M244.4 372C243.7 364.1 243.4 356.2 242.7 348.4C242.4 344.8 237.4 344.8 237.1 348.4C235.9 361.1 234.6 374.6 238.1 387C238.5 388.4 239.7 389.7 241.2 390.1C241.5 390.2 241.8 390.2 242.1 390.3C243.1 390.5 244.4 390.4 245 389.5C248.6 385 244.9 377.3 244.4 372Z" fill="black"/>
<path d="M291.4 372.9C291.5 367.2 291.9 360 290.1 355.2C289.3 353.1 286.6 353.1 285.8 355.2C283.9 360 283.6 367.1 283.2 372.9C282.8 377.6 280.4 386.7 284 390.6C285.4 392.1 287.6 391.8 289.1 390.6C292.8 387.4 291.3 377.3 291.4 372.9Z" fill="black"/>
<path d="M326.6 349.1C326 345.8 321.3 346.9 321.1 349.8C320.2 363 315.7 375.6 315.1 388.8C314.8 394.4 323.2 394.2 323.7 388.8C325 375.7 329 362.4 326.6 349.1Z" fill="black"/>
<path d="M370.2 346.7C365.9 351.2 365.4 358 364.5 363.9C363.4 371.1 360.6 376.8 358.6 383.6C358 385.7 360.1 388 362.3 387.3C368.8 385 370.8 378.5 371.7 372.1C372.9 364.4 373 356.7 374.3 349C374.6 346.8 372 344.8 370.2 346.7Z" fill="black"/>
<path d="M134.6 435.7C133 429.3 131.4 423 130.6 416.4C130 411.1 131.5 405.5 130.6 400.4C130.3 398.9 128.5 398.9 127.6 399.6C123.1 403.1 123.1 411.2 123.1 416.4C123 423.6 124.1 431.1 126.2 438C127.7 443.5 135.9 441.2 134.6 435.7Z" fill="black"/>
<path d="M168.9 411.4C169.1 409 165.2 407.8 164.2 410.1C161.7 415.9 161.2 422.3 161 428.5C160.9 431.8 159 441.2 164.3 442C169.1 442.7 168.9 436.7 168.8 433.7C168.4 426.1 168.3 419 168.9 411.4Z" fill="black"/>
<path d="M223.9 434.7C222.3 430.4 220.7 426.6 220 421.9C219.1 415.9 219.1 409.9 218.5 403.9C218.2 401.2 214.2 400.2 213.5 403.2C211.7 410.7 212.1 419.6 213.2 427.2C213.8 431.4 217 442.7 223.3 437.3C223.9 436.7 224.2 435.5 223.9 434.7Z" fill="black"/>
<path d="M266.1 418.5C265.7 413 265.3 407.7 263 402.6C262 400.3 258.1 401.5 258.3 403.9C258.6 410 258.3 416.1 258.5 422.1C258.6 426.2 258.6 431.7 263.2 433C263.9 433.2 264.9 433 265.4 432.4C268.7 429 266.4 422.8 266.1 418.5Z" fill="black"/>
<path d="M304.7 417.6C304.5 413 304 408.4 303.6 403.9C303.4 401 299.3 401 299 403.9C298.7 408.5 298.2 413 297.9 417.6C297.7 421.8 296.8 426.2 298.2 430.2C299.2 433.2 303.3 433.2 304.4 430.2C305.8 426.3 305 421.7 304.7 417.6Z" fill="black"/>
<path d="M342.5 404.8C342.1 402.7 338.6 402.7 338.2 404.8C337.4 409.7 337.6 414.6 337.3 419.5C336.9 425.9 335.2 430.7 332.5 436.5C330.7 440.2 335.3 444.5 338.5 441.2C347.1 432.2 344.6 415.8 342.5 404.8Z" fill="black"/>
<path d="M103.5 482.7C102.7 478.6 102.8 474.4 102.3 470.2C101.5 463.2 99.8 456.7 94.6 451.6C92.6 449.7 89.2 452.2 90.7 454.6C96.1 462.9 94.6 471.5 95.4 480.7C95.9 486.4 96.8 492.3 102.6 494.7C104 495.3 105.8 493.8 105.7 492.3C105.5 489 104.1 486 103.5 482.7Z" fill="black"/>
<path d="M138.2 478.1C137.6 472.6 138.1 467 139.1 461.6C139.8 458 135.1 456.9 133.8 460.1C131.1 466.5 129.8 474 130.5 480.9C130.9 485.3 133.5 495.4 140 493C140.7 492.7 141.4 492.2 141.6 491.4C142.3 487.1 138.6 482.6 138.2 478.1Z" fill="black"/>
<path d="M191.3 451.9C190.9 448.8 186.6 448.7 186.4 451.9C185.8 461.2 185.9 471.9 188.8 480.8C189.2 482 191 482.5 191.7 481.2C196.1 472.1 192.4 461.5 191.3 451.9Z" fill="black"/>
<path d="M244.1 464.6C243.8 459.9 243.8 455.1 243.3 450.4C243 447.9 239.8 448 239.5 450.4C238.8 455.9 238 461.5 238 467C238 470.9 237.8 476 241.5 478.3C243 479.2 245.1 478.3 245.6 476.7C246.5 473 244.4 468.3 244.1 464.6Z" fill="black"/>
<path d="M278.4 453.7C275.4 457.7 273 462.2 271.5 467C270.6 470 268.9 477.1 273.6 478.2C278 479.2 277.5 473.2 277.9 470.6C278.6 465.4 280.8 460.3 282.7 455.4C283.6 452.9 279.8 451.8 278.4 453.7Z" fill="black"/>
<path d="M310 454.4C308.7 460.5 306.5 466.3 304.8 472.3C303.5 476.9 302.1 481.4 304.3 485.8C304.8 486.8 306.4 487 307.1 486.2C310.5 482.3 310.8 476.9 311.7 472C312.7 466.3 313.4 460.7 313.8 455C314 452.7 310.5 452.2 310 454.4Z" fill="black"/>
<path d="M354.4 457.2C352.6 461.8 351.9 466.5 350.8 471.2C349.7 475.8 347.7 480 346 484.3C345.5 485.6 347 487.1 348.3 486.6C359 482.4 357.4 467.9 359.3 458.5C360 455.3 355.6 454.2 354.4 457.2Z" fill="black"/>
<path d="M129.2 533.9C128.5 531.6 127.2 529.3 126.9 526.9C126.5 524.1 126.7 521.3 126.5 518.5C126.1 513.4 124.2 508.4 119 506.8C116.8 506.1 115.5 508.9 116.8 510.5C121.1 515.5 119 521.4 119.6 527.4C120.1 532.3 122.3 537 127.9 536.2C128.9 536.1 129.5 534.8 129.2 533.9Z" fill="black"/>
<path d="M173.7 508.3C172.1 504.8 169.4 499.7 164.9 499.6C163.2 499.6 162.7 501.5 163.6 502.7C166 505.7 167 509.5 167.8 513.2C168.6 516.8 168.5 522.1 172.3 523.8C173.3 524.3 174.6 524.3 175.4 523.4C179.1 519.3 175.6 512.5 173.7 508.3Z" fill="black"/>
<path d="M225.2 514.1C223.4 511.1 221.9 509.4 221.6 505.8C221.4 502.6 221.6 499.5 221 496.3C220.6 494.2 217.2 494.2 216.8 496.3C215.4 503.6 213 515.2 221.6 518.8C224.2 519.9 226.5 516.3 225.2 514.1Z" fill="black"/>
<path d="M264.6 506.7C264.2 504.3 264 501.9 264.2 499.5C264.3 498.2 264.5 497 264.1 495.9C264.5 494.2 262.5 492.3 261.1 494C260.6 494.6 259.2 495.6 258.7 497.2C258 499.3 257.8 501.7 257.6 503.9C257.3 507.4 256.9 515.2 261.8 515.9C267.1 516.7 265 509.5 264.6 506.7Z" fill="black"/>
<path d="M286.1 500.9C285 505.4 284 509.9 283.1 514.5C282.4 518.2 281.2 521.6 282.9 525.1C283.5 526.3 285.5 526.6 286.4 525.6C288.9 522.6 288.6 519.1 288.9 515.4C289.3 510.8 289.5 506.2 289.7 501.5C289.9 499.3 286.6 498.8 286.1 500.9Z" fill="black"/>
<path d="M327.2 500.9C326.9 499.1 324 499.2 323.7 500.9C322.7 505.6 322.1 510.4 320.8 515.1C319.6 519.8 317.3 524.3 316.4 529.1C315.7 532.5 320.3 534.8 322.2 531.5C326.8 523.6 328.7 509.9 327.2 500.9Z" fill="black"/>
<path d="M119.5 574.5C117.8 573.4 115.9 572.8 114.6 571.2C113.3 569.5 112.7 567.3 112.2 565.3C111.1 561.1 110.6 556.5 108.1 552.9C106.8 551 104 552.2 104.4 554.5C105.8 561.6 106.5 584.2 119.5 578.4C121.1 577.6 120.8 575.3 119.5 574.5Z" fill="black"/>
<path d="M149.8 565C148.4 559.3 147 553.6 146.3 547.8C146 544.8 141.7 544.7 141.5 547.8C141.2 553.2 141.5 558.6 142.2 564C142.9 568.9 143 574.3 146.9 577.9C147.8 578.7 149.7 578.8 150.3 577.5C152.1 573.2 150.9 569.5 149.8 565Z" fill="black"/>
<path d="M201.5 553.9C201.3 548.8 200.5 544 198.2 539.4C197.3 537.7 194.1 538.4 194.4 540.4C194.9 545.2 195.1 550 194.8 554.8C194.6 558.8 193.7 563.5 196.3 566.8C197 567.7 198.4 568.2 199.3 567.2C202.1 563.6 201.7 558.4 201.5 553.9Z" fill="black"/>
<path d="M244.5 539.9C244.2 538.3 241.6 538.3 241.2 539.9C240.4 543.5 240.2 547.3 239.9 550.9C239.5 554.8 238.2 558.9 238.6 562.8C238.9 565.3 242.4 566.9 243.8 564.2C245.6 560.7 245.5 556.4 245.5 552.5C245.6 548.4 245.4 544.1 244.5 539.9Z" fill="black"/>
<path d="M276.5 545.8C276.1 543.2 272.5 544.2 272.2 546.4C271.7 550.7 271.7 555.1 271.2 559.5C270.8 563.1 269.4 566.5 271.2 569.9C271.7 570.8 272.9 571 273.8 570.6C277.7 568.7 277.7 564.2 277.7 560.3C277.8 555.4 277.1 550.6 276.5 545.8Z" fill="black"/>
<path d="M305.6 551.3C303.8 555.4 302.6 559.6 301.3 563.9C299.9 568.6 297.3 572.5 295.5 577.1C294.3 580.2 298.6 581.9 300.6 580.1C307.5 573.9 307.6 561.4 309.5 553C309.9 550.7 306.6 549 305.6 551.3Z" fill="black"/>
<path d="M83.4 254.5C82.6 252.7 79.9 252.6 78.7 253.9C77.4 255.3 76.9 257.5 76.1 259.4C75.2 261.4 73.7 263.5 73.2 265.7C72.4 269.4 76.7 272.1 79.6 269.4C81.5 267.6 82.2 264.4 82.9 262C83.5 259.6 84.5 256.9 83.4 254.5Z" fill="black"/>
<path d="M107.2 262.1C106.6 259.4 106.5 256.6 106.2 253.9C105.9 250.8 101.7 250 100.6 253.1C99.6 256.1 99.2 259.5 99.5 262.6C99.7 265.7 99.9001 269.2 102.9 270.8C104.5 271.6 106.6 271.2 107.5 269.6C108.9 267 107.8 264.8 107.2 262.1Z" fill="black"/>
<path d="M131.2 266.2C130.9 263.1 130.6 260 129.4 257.2C128.7 255.7 126.1 255.7 125.4 257.2C123.1 262.4 122 272.4 125.3 277.4C127.3 280.5 132.4 279.4 132.4 275.5C132.4 272.5 131.5 269.2 131.2 266.2Z" fill="black"/>
<path d="M162.3 264.6C162.1 262.3 161.9 259.9 161.1 257.7C160.3 255.5 157.4 255.5 156.6 257.7C155.8 259.9 155.6 262.3 155.4 264.6C155.2 267 154.8 269.5 155.1 271.9C155.7 276.6 161.9 276.6 162.5 271.9C162.9 269.5 162.5 267 162.3 264.6Z" fill="black"/>
<path d="M192.4 263.4C191.3 260.5 188.3 259 186.1 256.9C184 255 181.9 252.8 180.2 250.6C178.7 248.7 175.1 250.8 176 253C177.2 256.2 178.5 258.9 180.6 261.6C182.7 264.4 185.2 267.6 188.9 268C191.1 268.3 193.2 265.5 192.4 263.4Z" fill="black"/>
<path d="M286.9 263.7C280.4 263.3 279 276.1 280 280.3C280.8 283.5 285.9 283.6 286.6 280.3C287.2 277.6 286.7 274.8 287.4 272.1C287.9 270 289.3 268.5 289.6 266.4C289.8 264.9 288.3 263.8 286.9 263.7Z" fill="black"/>
<path d="M318.8 276.4C317.8 275.6 317.1 274.8 316.6 273.7C316.4 273.2 316.3 272.7 316.1 272.2C315.9 271.7 315 269.7 315.5 271C314.7 268.8 312 268.9 311.2 271C311.7 269.8 310.8 271.5 310.7 272C310.5 272.7 310.5 273.3 310.6 274C310.7 275.5 311.1 277 311.6 278.4C312.9 281.6 316.3 285.3 320.1 283.4C323.6 281.5 320.8 278.1 318.8 276.4Z" fill="black"/>
<path d="M356.9 274.2C357.3 275.1 357.3 275.2 357 274.5C356.9 274.1 356.6 273.7 356.3 273.4C356 273.1 355.7 272.8 355.4 272.6C354.6 271.9 354.4 272 354.1 271.1C353.5 269.6 353.6 267.5 353.7 265.9C353.9 263.3 349.7 262 348.6 264.5C347.3 267.6 346.2 270.8 347.4 274.2C348 275.7 348.9 277.2 350.2 278.2C350.9 278.7 351.8 279.1 352.6 279.3C353.1 279.4 353.7 279.5 354.3 279.4C354.7 279.3 356.6 279.1 354.9 279.2C357.1 279 359 275.9 356.9 274.2Z" fill="black"/>
<path d="M384.1 268.5C383.2 266.6 382 265 381.1 263.1C380.3 261.3 379.7 259.4 379 257.6C378.2 255.4 374.2 254.7 373.8 257.6C373 262.8 374.6 269.1 378.3 272.9C381.4 276.2 385.8 272.1 384.1 268.5Z" fill="black"/>
<path d="M408.1 259.5C407.2 257.5 405.8 255.6 404.6 253.8C403.4 251.9 402.3 250 401.2 248.1C399.6 245.5 395.8 247.2 396.3 250.1C397.3 254.9 399.1 260.2 402.2 264C403.4 265.4 405.7 265.3 407.1 264.3C408.7 263.1 408.9 261.2 408.1 259.5Z" fill="black"/>
</svg>


