<svg width="675" height="725" viewBox="0 0 675 725" fill="none" xmlns="http://www.w3.org/2000/svg">
<rect x="140" y="163" width="409" height="371" fill="white"/>
<path d="M453.8 240.3C445.1 240.3 438 247.4 438 256.1C438 264.8 445.1 271.9 453.8 271.9C462.5 271.9 469.6 264.8 469.6 256.1C469.6 247.4 462.5 240.3 453.8 240.3Z" fill="black"/>
<path d="M237 240.3C228.3 240.3 221.2 247.4 221.2 256.1C221.2 264.8 228.3 271.9 237 271.9C245.7 271.9 252.8 264.8 252.8 256.1C252.8 247.4 245.8 240.3 237 240.3Z" fill="black"/>
<path d="M674.3 52.1C674.3 52.1 602.8 121.4 522.3 43.2C451.5 -25.6 358.8 7.7 337.6 16.6C316.4 7.6 223.7 -25.7 152.9 43.2C72.5 121.4 0.899994 52.1 0.899994 52.1C0.899994 52.1 43.4 129.4 128.5 158.2C96.5 209.1 77.6 271.8 77.6 339.6C77.6 411.9 92.2 471.4 114.5 520.3C114.9 520 115.2 519.8 115.5 519.5C118.6 516.7 122.1 513.8 125.3 510.2C128.8 506.8 131.9 502.7 135.2 498.6C138.4 494.3 141.5 489.7 144.4 484.9C147 479.9 150.3 475.1 152.4 469.7C154.7 464.4 157.3 459.2 159 453.7C160.8 448.3 163 443 164.2 437.6C165.5 432.3 167.1 427.1 168.1 422.1C169 417.1 169.8 412.4 170.6 408C171.5 403.6 171.9 399.6 172.2 396C172.6 392.4 172.9 389.3 173.1 386.7C173.6 381.5 173.9 378.5 173.9 378.5C173.9 378.5 173.9 381.5 174 386.7C174 389.3 174 392.5 174 396.1C174.1 399.7 174 403.9 173.6 408.3C173.3 412.8 172.9 417.7 172.6 422.8C172.1 427.9 171.1 433.3 170.3 438.9C169.7 444.5 168 450.2 166.7 456C165.5 461.9 163.4 467.6 161.6 473.4C159.9 479.3 157.1 484.8 154.8 490.4C152.2 495.9 149.4 501.2 146.4 506.2C143.2 511.1 140.3 516 136.8 520.1C133.6 524.5 130 528.2 126.8 531.8C125.2 533.4 123.6 534.9 122.1 536.4C197.5 682.4 341.8 724.7 341.8 724.7C341.8 724.7 490.1 677.2 564.6 527.2C562.6 525 560.6 522.7 558.8 520.1C555.3 515.9 552.4 511.1 549.2 506.2C546.2 501.2 543.4 495.8 540.8 490.4C538.6 484.7 535.7 479.3 534 473.4C532.1 467.6 530 461.8 528.9 456C527.6 450.2 526 444.5 525.3 438.9C524.5 433.3 523.5 427.9 523 422.8C522.6 417.7 522.3 412.8 522 408.3C521.6 403.8 521.5 399.7 521.6 396.1C521.6 392.5 521.6 389.3 521.7 386.7C521.7 381.5 521.7 378.5 521.7 378.5C521.7 378.5 522 381.5 522.5 386.7C522.8 389.3 523.1 392.4 523.4 396C523.7 399.6 524.2 403.7 525 408C525.8 412.4 526.6 417.1 527.5 422.1C528.5 427.1 530 432.2 531.4 437.6C532.6 443 534.8 448.3 536.6 453.7C538.3 459.2 540.9 464.4 543.2 469.7C545.3 475.1 548.6 479.9 551.2 484.9C554.2 489.7 557.3 494.3 560.4 498.6C563.8 502.7 566.9 506.8 570.3 510.2C570.8 510.7 571.2 511.1 571.7 511.6C592.6 464.3 606.1 407.5 606.1 339.7C606.1 270.7 586.6 207 553.6 155.6C634.2 124.9 674.3 52.1 674.3 52.1ZM237 345.7C187.5 345.7 147.4 305.6 147.4 256.1C147.4 206.6 187.5 166.5 237 166.5C286.5 166.5 326.6 206.6 326.6 256.1C326.6 305.6 286.5 345.7 237 345.7ZM346.3 398.4L316.1 345.6H376.4L346.3 398.4ZM453.8 345.7C404.3 345.7 364.2 305.6 364.2 256.1C364.2 206.6 404.3 166.5 453.8 166.5C503.3 166.5 543.4 206.6 543.4 256.1C543.4 305.6 503.3 345.7 453.8 345.7Z" fill="#F56565"/>
</svg>
